G75*
%MOIN*%
%OFA0B0*%
%FSLAX24Y24*%
%IPPOS*%
%LPD*%
%AMOC8*
5,1,8,0,0,1.08239X$1,22.5*
%
%ADD10C,0.0000*%
%ADD11C,0.0080*%
%ADD12C,0.0400*%
%ADD13C,0.0200*%
%ADD14C,0.0060*%
D10*
X002680Y003220D02*
X005180Y000720D01*
X040180Y000720D01*
X042680Y003220D01*
X042680Y038220D01*
X040180Y040716D01*
X005180Y040716D01*
X002680Y038220D01*
X002680Y003220D01*
X004550Y003220D02*
X004552Y003270D01*
X004558Y003320D01*
X004568Y003369D01*
X004582Y003417D01*
X004599Y003464D01*
X004620Y003509D01*
X004645Y003553D01*
X004673Y003594D01*
X004705Y003633D01*
X004739Y003670D01*
X004776Y003704D01*
X004816Y003734D01*
X004858Y003761D01*
X004902Y003785D01*
X004948Y003806D01*
X004995Y003822D01*
X005043Y003835D01*
X005093Y003844D01*
X005142Y003849D01*
X005193Y003850D01*
X005243Y003847D01*
X005292Y003840D01*
X005341Y003829D01*
X005389Y003814D01*
X005435Y003796D01*
X005480Y003774D01*
X005523Y003748D01*
X005564Y003719D01*
X005603Y003687D01*
X005639Y003652D01*
X005671Y003614D01*
X005701Y003574D01*
X005728Y003531D01*
X005751Y003487D01*
X005770Y003441D01*
X005786Y003393D01*
X005798Y003344D01*
X005806Y003295D01*
X005810Y003245D01*
X005810Y003195D01*
X005806Y003145D01*
X005798Y003096D01*
X005786Y003047D01*
X005770Y002999D01*
X005751Y002953D01*
X005728Y002909D01*
X005701Y002866D01*
X005671Y002826D01*
X005639Y002788D01*
X005603Y002753D01*
X005564Y002721D01*
X005523Y002692D01*
X005480Y002666D01*
X005435Y002644D01*
X005389Y002626D01*
X005341Y002611D01*
X005292Y002600D01*
X005243Y002593D01*
X005193Y002590D01*
X005142Y002591D01*
X005093Y002596D01*
X005043Y002605D01*
X004995Y002618D01*
X004948Y002634D01*
X004902Y002655D01*
X004858Y002679D01*
X004816Y002706D01*
X004776Y002736D01*
X004739Y002770D01*
X004705Y002807D01*
X004673Y002846D01*
X004645Y002887D01*
X004620Y002931D01*
X004599Y002976D01*
X004582Y003023D01*
X004568Y003071D01*
X004558Y003120D01*
X004552Y003170D01*
X004550Y003220D01*
X022280Y030920D02*
X022282Y030960D01*
X022288Y030999D01*
X022298Y031038D01*
X022311Y031075D01*
X022329Y031111D01*
X022350Y031145D01*
X022374Y031177D01*
X022401Y031206D01*
X022431Y031233D01*
X022463Y031256D01*
X022498Y031276D01*
X022534Y031292D01*
X022572Y031305D01*
X022611Y031314D01*
X022650Y031319D01*
X022690Y031320D01*
X022730Y031317D01*
X022769Y031310D01*
X022807Y031299D01*
X022845Y031285D01*
X022880Y031266D01*
X022913Y031245D01*
X022945Y031220D01*
X022973Y031192D01*
X022999Y031162D01*
X023021Y031129D01*
X023040Y031094D01*
X023056Y031057D01*
X023068Y031019D01*
X023076Y030980D01*
X023080Y030940D01*
X023080Y030900D01*
X023076Y030860D01*
X023068Y030821D01*
X023056Y030783D01*
X023040Y030746D01*
X023021Y030711D01*
X022999Y030678D01*
X022973Y030648D01*
X022945Y030620D01*
X022913Y030595D01*
X022880Y030574D01*
X022845Y030555D01*
X022807Y030541D01*
X022769Y030530D01*
X022730Y030523D01*
X022690Y030520D01*
X022650Y030521D01*
X022611Y030526D01*
X022572Y030535D01*
X022534Y030548D01*
X022498Y030564D01*
X022463Y030584D01*
X022431Y030607D01*
X022401Y030634D01*
X022374Y030663D01*
X022350Y030695D01*
X022329Y030729D01*
X022311Y030765D01*
X022298Y030802D01*
X022288Y030841D01*
X022282Y030880D01*
X022280Y030920D01*
X022280Y032720D02*
X022282Y032760D01*
X022288Y032799D01*
X022298Y032838D01*
X022311Y032875D01*
X022329Y032911D01*
X022350Y032945D01*
X022374Y032977D01*
X022401Y033006D01*
X022431Y033033D01*
X022463Y033056D01*
X022498Y033076D01*
X022534Y033092D01*
X022572Y033105D01*
X022611Y033114D01*
X022650Y033119D01*
X022690Y033120D01*
X022730Y033117D01*
X022769Y033110D01*
X022807Y033099D01*
X022845Y033085D01*
X022880Y033066D01*
X022913Y033045D01*
X022945Y033020D01*
X022973Y032992D01*
X022999Y032962D01*
X023021Y032929D01*
X023040Y032894D01*
X023056Y032857D01*
X023068Y032819D01*
X023076Y032780D01*
X023080Y032740D01*
X023080Y032700D01*
X023076Y032660D01*
X023068Y032621D01*
X023056Y032583D01*
X023040Y032546D01*
X023021Y032511D01*
X022999Y032478D01*
X022973Y032448D01*
X022945Y032420D01*
X022913Y032395D01*
X022880Y032374D01*
X022845Y032355D01*
X022807Y032341D01*
X022769Y032330D01*
X022730Y032323D01*
X022690Y032320D01*
X022650Y032321D01*
X022611Y032326D01*
X022572Y032335D01*
X022534Y032348D01*
X022498Y032364D01*
X022463Y032384D01*
X022431Y032407D01*
X022401Y032434D01*
X022374Y032463D01*
X022350Y032495D01*
X022329Y032529D01*
X022311Y032565D01*
X022298Y032602D01*
X022288Y032641D01*
X022282Y032680D01*
X022280Y032720D01*
X004550Y038220D02*
X004552Y038270D01*
X004558Y038320D01*
X004568Y038369D01*
X004582Y038417D01*
X004599Y038464D01*
X004620Y038509D01*
X004645Y038553D01*
X004673Y038594D01*
X004705Y038633D01*
X004739Y038670D01*
X004776Y038704D01*
X004816Y038734D01*
X004858Y038761D01*
X004902Y038785D01*
X004948Y038806D01*
X004995Y038822D01*
X005043Y038835D01*
X005093Y038844D01*
X005142Y038849D01*
X005193Y038850D01*
X005243Y038847D01*
X005292Y038840D01*
X005341Y038829D01*
X005389Y038814D01*
X005435Y038796D01*
X005480Y038774D01*
X005523Y038748D01*
X005564Y038719D01*
X005603Y038687D01*
X005639Y038652D01*
X005671Y038614D01*
X005701Y038574D01*
X005728Y038531D01*
X005751Y038487D01*
X005770Y038441D01*
X005786Y038393D01*
X005798Y038344D01*
X005806Y038295D01*
X005810Y038245D01*
X005810Y038195D01*
X005806Y038145D01*
X005798Y038096D01*
X005786Y038047D01*
X005770Y037999D01*
X005751Y037953D01*
X005728Y037909D01*
X005701Y037866D01*
X005671Y037826D01*
X005639Y037788D01*
X005603Y037753D01*
X005564Y037721D01*
X005523Y037692D01*
X005480Y037666D01*
X005435Y037644D01*
X005389Y037626D01*
X005341Y037611D01*
X005292Y037600D01*
X005243Y037593D01*
X005193Y037590D01*
X005142Y037591D01*
X005093Y037596D01*
X005043Y037605D01*
X004995Y037618D01*
X004948Y037634D01*
X004902Y037655D01*
X004858Y037679D01*
X004816Y037706D01*
X004776Y037736D01*
X004739Y037770D01*
X004705Y037807D01*
X004673Y037846D01*
X004645Y037887D01*
X004620Y037931D01*
X004599Y037976D01*
X004582Y038023D01*
X004568Y038071D01*
X004558Y038120D01*
X004552Y038170D01*
X004550Y038220D01*
X039550Y038220D02*
X039552Y038270D01*
X039558Y038320D01*
X039568Y038369D01*
X039582Y038417D01*
X039599Y038464D01*
X039620Y038509D01*
X039645Y038553D01*
X039673Y038594D01*
X039705Y038633D01*
X039739Y038670D01*
X039776Y038704D01*
X039816Y038734D01*
X039858Y038761D01*
X039902Y038785D01*
X039948Y038806D01*
X039995Y038822D01*
X040043Y038835D01*
X040093Y038844D01*
X040142Y038849D01*
X040193Y038850D01*
X040243Y038847D01*
X040292Y038840D01*
X040341Y038829D01*
X040389Y038814D01*
X040435Y038796D01*
X040480Y038774D01*
X040523Y038748D01*
X040564Y038719D01*
X040603Y038687D01*
X040639Y038652D01*
X040671Y038614D01*
X040701Y038574D01*
X040728Y038531D01*
X040751Y038487D01*
X040770Y038441D01*
X040786Y038393D01*
X040798Y038344D01*
X040806Y038295D01*
X040810Y038245D01*
X040810Y038195D01*
X040806Y038145D01*
X040798Y038096D01*
X040786Y038047D01*
X040770Y037999D01*
X040751Y037953D01*
X040728Y037909D01*
X040701Y037866D01*
X040671Y037826D01*
X040639Y037788D01*
X040603Y037753D01*
X040564Y037721D01*
X040523Y037692D01*
X040480Y037666D01*
X040435Y037644D01*
X040389Y037626D01*
X040341Y037611D01*
X040292Y037600D01*
X040243Y037593D01*
X040193Y037590D01*
X040142Y037591D01*
X040093Y037596D01*
X040043Y037605D01*
X039995Y037618D01*
X039948Y037634D01*
X039902Y037655D01*
X039858Y037679D01*
X039816Y037706D01*
X039776Y037736D01*
X039739Y037770D01*
X039705Y037807D01*
X039673Y037846D01*
X039645Y037887D01*
X039620Y037931D01*
X039599Y037976D01*
X039582Y038023D01*
X039568Y038071D01*
X039558Y038120D01*
X039552Y038170D01*
X039550Y038220D01*
X039550Y003220D02*
X039552Y003270D01*
X039558Y003320D01*
X039568Y003369D01*
X039582Y003417D01*
X039599Y003464D01*
X039620Y003509D01*
X039645Y003553D01*
X039673Y003594D01*
X039705Y003633D01*
X039739Y003670D01*
X039776Y003704D01*
X039816Y003734D01*
X039858Y003761D01*
X039902Y003785D01*
X039948Y003806D01*
X039995Y003822D01*
X040043Y003835D01*
X040093Y003844D01*
X040142Y003849D01*
X040193Y003850D01*
X040243Y003847D01*
X040292Y003840D01*
X040341Y003829D01*
X040389Y003814D01*
X040435Y003796D01*
X040480Y003774D01*
X040523Y003748D01*
X040564Y003719D01*
X040603Y003687D01*
X040639Y003652D01*
X040671Y003614D01*
X040701Y003574D01*
X040728Y003531D01*
X040751Y003487D01*
X040770Y003441D01*
X040786Y003393D01*
X040798Y003344D01*
X040806Y003295D01*
X040810Y003245D01*
X040810Y003195D01*
X040806Y003145D01*
X040798Y003096D01*
X040786Y003047D01*
X040770Y002999D01*
X040751Y002953D01*
X040728Y002909D01*
X040701Y002866D01*
X040671Y002826D01*
X040639Y002788D01*
X040603Y002753D01*
X040564Y002721D01*
X040523Y002692D01*
X040480Y002666D01*
X040435Y002644D01*
X040389Y002626D01*
X040341Y002611D01*
X040292Y002600D01*
X040243Y002593D01*
X040193Y002590D01*
X040142Y002591D01*
X040093Y002596D01*
X040043Y002605D01*
X039995Y002618D01*
X039948Y002634D01*
X039902Y002655D01*
X039858Y002679D01*
X039816Y002706D01*
X039776Y002736D01*
X039739Y002770D01*
X039705Y002807D01*
X039673Y002846D01*
X039645Y002887D01*
X039620Y002931D01*
X039599Y002976D01*
X039582Y003023D01*
X039568Y003071D01*
X039558Y003120D01*
X039552Y003170D01*
X039550Y003220D01*
D11*
X024452Y028862D02*
X020908Y028862D01*
X020908Y029492D01*
X020908Y031106D02*
X020908Y031933D01*
X021696Y032720D02*
X021696Y034098D01*
X023664Y034098D01*
X023664Y032720D01*
X023660Y032661D01*
X023651Y032602D01*
X023639Y032544D01*
X023624Y032487D01*
X023605Y032431D01*
X023582Y032376D01*
X023556Y032323D01*
X023527Y032271D01*
X023495Y032222D01*
X023459Y032174D01*
X023421Y032129D01*
X023380Y032086D01*
X023336Y032046D01*
X023290Y032009D01*
X023242Y031975D01*
X023191Y031944D01*
X023139Y031916D01*
X023085Y031892D01*
X023030Y031871D01*
X022973Y031853D01*
X022915Y031839D01*
X022857Y031829D01*
X022798Y031822D01*
X022739Y031819D01*
X022680Y031820D01*
X022621Y031819D01*
X022562Y031822D01*
X022503Y031829D01*
X022445Y031839D01*
X022387Y031853D01*
X022330Y031871D01*
X022275Y031892D01*
X022221Y031916D01*
X022169Y031944D01*
X022118Y031975D01*
X022070Y032009D01*
X022024Y032046D01*
X021980Y032086D01*
X021939Y032129D01*
X021901Y032174D01*
X021865Y032222D01*
X021833Y032271D01*
X021804Y032323D01*
X021778Y032376D01*
X021755Y032431D01*
X021736Y032487D01*
X021721Y032544D01*
X021709Y032602D01*
X021700Y032661D01*
X021696Y032720D01*
X020908Y033507D02*
X020908Y034098D01*
X021696Y034098D01*
X021680Y035620D02*
X021680Y036020D01*
X021280Y035820D02*
X021282Y035860D01*
X021288Y035899D01*
X021298Y035938D01*
X021311Y035975D01*
X021329Y036011D01*
X021350Y036045D01*
X021374Y036077D01*
X021401Y036106D01*
X021431Y036133D01*
X021463Y036156D01*
X021498Y036176D01*
X021534Y036192D01*
X021572Y036205D01*
X021611Y036214D01*
X021650Y036219D01*
X021690Y036220D01*
X021730Y036217D01*
X021769Y036210D01*
X021807Y036199D01*
X021845Y036185D01*
X021880Y036166D01*
X021913Y036145D01*
X021945Y036120D01*
X021973Y036092D01*
X021999Y036062D01*
X022021Y036029D01*
X022040Y035994D01*
X022056Y035957D01*
X022068Y035919D01*
X022076Y035880D01*
X022080Y035840D01*
X022080Y035800D01*
X022076Y035760D01*
X022068Y035721D01*
X022056Y035683D01*
X022040Y035646D01*
X022021Y035611D01*
X021999Y035578D01*
X021973Y035548D01*
X021945Y035520D01*
X021913Y035495D01*
X021880Y035474D01*
X021845Y035455D01*
X021807Y035441D01*
X021769Y035430D01*
X021730Y035423D01*
X021690Y035420D01*
X021650Y035421D01*
X021611Y035426D01*
X021572Y035435D01*
X021534Y035448D01*
X021498Y035464D01*
X021463Y035484D01*
X021431Y035507D01*
X021401Y035534D01*
X021374Y035563D01*
X021350Y035595D01*
X021329Y035629D01*
X021311Y035665D01*
X021298Y035702D01*
X021288Y035741D01*
X021282Y035780D01*
X021280Y035820D01*
X021480Y035820D02*
X021880Y035820D01*
X022080Y035820D02*
X022680Y035820D01*
X022680Y035420D02*
X022719Y035422D01*
X022758Y035428D01*
X022796Y035437D01*
X022833Y035450D01*
X022869Y035467D01*
X022902Y035487D01*
X022934Y035511D01*
X022963Y035537D01*
X022989Y035566D01*
X023013Y035598D01*
X023033Y035631D01*
X023050Y035667D01*
X023063Y035704D01*
X023072Y035742D01*
X023078Y035781D01*
X023080Y035820D01*
X023480Y035820D01*
X023680Y035820D02*
X024080Y035820D01*
X023480Y035820D02*
X023482Y035860D01*
X023488Y035899D01*
X023498Y035938D01*
X023511Y035975D01*
X023529Y036011D01*
X023550Y036045D01*
X023574Y036077D01*
X023601Y036106D01*
X023631Y036133D01*
X023663Y036156D01*
X023698Y036176D01*
X023734Y036192D01*
X023772Y036205D01*
X023811Y036214D01*
X023850Y036219D01*
X023890Y036220D01*
X023930Y036217D01*
X023969Y036210D01*
X024007Y036199D01*
X024045Y036185D01*
X024080Y036166D01*
X024113Y036145D01*
X024145Y036120D01*
X024173Y036092D01*
X024199Y036062D01*
X024221Y036029D01*
X024240Y035994D01*
X024256Y035957D01*
X024268Y035919D01*
X024276Y035880D01*
X024280Y035840D01*
X024280Y035800D01*
X024276Y035760D01*
X024268Y035721D01*
X024256Y035683D01*
X024240Y035646D01*
X024221Y035611D01*
X024199Y035578D01*
X024173Y035548D01*
X024145Y035520D01*
X024113Y035495D01*
X024080Y035474D01*
X024045Y035455D01*
X024007Y035441D01*
X023969Y035430D01*
X023930Y035423D01*
X023890Y035420D01*
X023850Y035421D01*
X023811Y035426D01*
X023772Y035435D01*
X023734Y035448D01*
X023698Y035464D01*
X023663Y035484D01*
X023631Y035507D01*
X023601Y035534D01*
X023574Y035563D01*
X023550Y035595D01*
X023529Y035629D01*
X023511Y035665D01*
X023498Y035702D01*
X023488Y035741D01*
X023482Y035780D01*
X023480Y035820D01*
X023080Y035820D02*
X023078Y035859D01*
X023072Y035898D01*
X023063Y035936D01*
X023050Y035973D01*
X023033Y036009D01*
X023013Y036042D01*
X022989Y036074D01*
X022963Y036103D01*
X022934Y036129D01*
X022902Y036153D01*
X022869Y036173D01*
X022833Y036190D01*
X022796Y036203D01*
X022758Y036212D01*
X022719Y036218D01*
X022680Y036220D01*
X022640Y036760D02*
X022180Y036760D01*
X022026Y036913D01*
X022026Y037527D01*
X022180Y037681D01*
X022640Y037681D01*
X022640Y036760D01*
X022947Y037067D02*
X022947Y037681D01*
X022947Y037067D02*
X023254Y036760D01*
X023561Y037067D01*
X023561Y037681D01*
X023868Y037527D02*
X023868Y037374D01*
X024021Y037220D01*
X023868Y037067D01*
X023868Y036913D01*
X024021Y036760D01*
X024328Y036760D01*
X024482Y036913D01*
X024175Y037220D02*
X024021Y037220D01*
X023868Y037527D02*
X024021Y037681D01*
X024328Y037681D01*
X024482Y037527D01*
X021719Y037527D02*
X021719Y036913D01*
X021566Y036760D01*
X021259Y036760D01*
X021105Y036913D01*
X021105Y037527D02*
X021259Y037681D01*
X021566Y037681D01*
X021719Y037527D01*
X023664Y034098D02*
X024452Y034098D01*
X024452Y033507D01*
X024452Y031933D02*
X024452Y031106D01*
X024452Y029531D02*
X024452Y028862D01*
D12*
X027680Y025720D02*
X027680Y015720D01*
X017680Y015720D01*
X017680Y024720D01*
X026680Y024720D01*
X026680Y016720D01*
X018680Y016720D01*
X018680Y023720D01*
X025680Y023720D01*
X025680Y017720D01*
X019680Y017720D01*
X019680Y022720D01*
X024680Y022720D01*
X024680Y018720D01*
X020680Y018720D01*
X020680Y021720D01*
X023680Y021720D01*
X023680Y019720D01*
X021680Y019720D01*
X021680Y020720D01*
X022680Y020720D01*
X027680Y025720D02*
X016680Y025720D01*
X016680Y014720D01*
X028680Y014720D01*
X028680Y026720D01*
X015680Y026720D01*
X015680Y013720D01*
X029680Y013720D01*
X029680Y027720D01*
X014680Y027720D01*
X014680Y012720D01*
X030680Y012720D01*
X030680Y028720D01*
X013680Y028720D01*
X013680Y011720D01*
X031680Y011720D01*
X031680Y029720D01*
X012680Y029720D01*
X012680Y010720D01*
X032680Y010720D01*
X032680Y030720D01*
X011680Y030720D01*
X011680Y009720D01*
X033680Y009720D01*
X033680Y031720D01*
X010680Y031720D01*
X010680Y008720D01*
X034680Y008720D01*
X034680Y032720D01*
X009680Y032720D01*
X009680Y007720D01*
X035680Y007720D01*
X035680Y033720D01*
X008680Y033720D01*
X008680Y006720D01*
X036680Y006720D01*
X036680Y034720D01*
X007680Y034720D01*
X007680Y005720D01*
X037680Y005720D01*
X037680Y035720D01*
X025680Y035720D01*
X025680Y036720D02*
X038680Y036720D01*
X038680Y004720D01*
X006680Y004720D01*
X006680Y035720D01*
X019680Y035720D01*
X019680Y036720D02*
X005680Y036720D01*
X005680Y003720D01*
X039680Y003720D01*
X039680Y037720D01*
X025680Y037720D01*
X019680Y037720D02*
X004680Y037720D01*
X004680Y002720D01*
X040680Y002720D01*
X040680Y038720D01*
X003680Y038720D01*
X003680Y001720D01*
X041680Y001720D01*
X041680Y039720D01*
X003680Y039720D01*
D13*
X022580Y035820D02*
X022582Y035840D01*
X022588Y035858D01*
X022597Y035876D01*
X022609Y035891D01*
X022624Y035903D01*
X022642Y035912D01*
X022660Y035918D01*
X022680Y035920D01*
X022700Y035918D01*
X022718Y035912D01*
X022736Y035903D01*
X022751Y035891D01*
X022763Y035876D01*
X022772Y035858D01*
X022778Y035840D01*
X022780Y035820D01*
X022778Y035800D01*
X022772Y035782D01*
X022763Y035764D01*
X022751Y035749D01*
X022736Y035737D01*
X022718Y035728D01*
X022700Y035722D01*
X022680Y035720D01*
X022660Y035722D01*
X022642Y035728D01*
X022624Y035737D01*
X022609Y035749D01*
X022597Y035764D01*
X022588Y035782D01*
X022582Y035800D01*
X022580Y035820D01*
D14*
X026786Y026710D02*
X027580Y026710D01*
X027584Y025730D02*
X026776Y025730D01*
X026786Y024210D02*
X027580Y024210D01*
X027584Y023230D02*
X026776Y023230D01*
X026786Y021710D02*
X027580Y021710D01*
X027584Y020730D02*
X026776Y020730D01*
X026776Y019210D02*
X027584Y019210D01*
X027574Y018230D02*
X026780Y018230D01*
M02*
