G75*
%MOIN*%
%OFA0B0*%
%FSLAX24Y24*%
%IPPOS*%
%LPD*%
%AMOC8*
5,1,8,0,0,1.08239X$1,22.5*
%
%ADD10C,0.0000*%
%ADD11C,0.0740*%
%ADD12C,0.0520*%
%ADD13R,0.0472X0.0472*%
%ADD14OC8,0.0850*%
%ADD15C,0.0160*%
%ADD16C,0.0240*%
%ADD17C,0.0400*%
D10*
X002680Y003220D02*
X005180Y000720D01*
X040180Y000720D01*
X042680Y003220D01*
X042680Y038220D01*
X040180Y040716D01*
X005180Y040716D01*
X002680Y038220D01*
X002680Y003220D01*
X004550Y003220D02*
X004552Y003270D01*
X004558Y003320D01*
X004568Y003369D01*
X004582Y003417D01*
X004599Y003464D01*
X004620Y003509D01*
X004645Y003553D01*
X004673Y003594D01*
X004705Y003633D01*
X004739Y003670D01*
X004776Y003704D01*
X004816Y003734D01*
X004858Y003761D01*
X004902Y003785D01*
X004948Y003806D01*
X004995Y003822D01*
X005043Y003835D01*
X005093Y003844D01*
X005142Y003849D01*
X005193Y003850D01*
X005243Y003847D01*
X005292Y003840D01*
X005341Y003829D01*
X005389Y003814D01*
X005435Y003796D01*
X005480Y003774D01*
X005523Y003748D01*
X005564Y003719D01*
X005603Y003687D01*
X005639Y003652D01*
X005671Y003614D01*
X005701Y003574D01*
X005728Y003531D01*
X005751Y003487D01*
X005770Y003441D01*
X005786Y003393D01*
X005798Y003344D01*
X005806Y003295D01*
X005810Y003245D01*
X005810Y003195D01*
X005806Y003145D01*
X005798Y003096D01*
X005786Y003047D01*
X005770Y002999D01*
X005751Y002953D01*
X005728Y002909D01*
X005701Y002866D01*
X005671Y002826D01*
X005639Y002788D01*
X005603Y002753D01*
X005564Y002721D01*
X005523Y002692D01*
X005480Y002666D01*
X005435Y002644D01*
X005389Y002626D01*
X005341Y002611D01*
X005292Y002600D01*
X005243Y002593D01*
X005193Y002590D01*
X005142Y002591D01*
X005093Y002596D01*
X005043Y002605D01*
X004995Y002618D01*
X004948Y002634D01*
X004902Y002655D01*
X004858Y002679D01*
X004816Y002706D01*
X004776Y002736D01*
X004739Y002770D01*
X004705Y002807D01*
X004673Y002846D01*
X004645Y002887D01*
X004620Y002931D01*
X004599Y002976D01*
X004582Y003023D01*
X004568Y003071D01*
X004558Y003120D01*
X004552Y003170D01*
X004550Y003220D01*
X022280Y030920D02*
X022282Y030960D01*
X022288Y030999D01*
X022298Y031038D01*
X022311Y031075D01*
X022329Y031111D01*
X022350Y031145D01*
X022374Y031177D01*
X022401Y031206D01*
X022431Y031233D01*
X022463Y031256D01*
X022498Y031276D01*
X022534Y031292D01*
X022572Y031305D01*
X022611Y031314D01*
X022650Y031319D01*
X022690Y031320D01*
X022730Y031317D01*
X022769Y031310D01*
X022807Y031299D01*
X022845Y031285D01*
X022880Y031266D01*
X022913Y031245D01*
X022945Y031220D01*
X022973Y031192D01*
X022999Y031162D01*
X023021Y031129D01*
X023040Y031094D01*
X023056Y031057D01*
X023068Y031019D01*
X023076Y030980D01*
X023080Y030940D01*
X023080Y030900D01*
X023076Y030860D01*
X023068Y030821D01*
X023056Y030783D01*
X023040Y030746D01*
X023021Y030711D01*
X022999Y030678D01*
X022973Y030648D01*
X022945Y030620D01*
X022913Y030595D01*
X022880Y030574D01*
X022845Y030555D01*
X022807Y030541D01*
X022769Y030530D01*
X022730Y030523D01*
X022690Y030520D01*
X022650Y030521D01*
X022611Y030526D01*
X022572Y030535D01*
X022534Y030548D01*
X022498Y030564D01*
X022463Y030584D01*
X022431Y030607D01*
X022401Y030634D01*
X022374Y030663D01*
X022350Y030695D01*
X022329Y030729D01*
X022311Y030765D01*
X022298Y030802D01*
X022288Y030841D01*
X022282Y030880D01*
X022280Y030920D01*
X022280Y032720D02*
X022282Y032760D01*
X022288Y032799D01*
X022298Y032838D01*
X022311Y032875D01*
X022329Y032911D01*
X022350Y032945D01*
X022374Y032977D01*
X022401Y033006D01*
X022431Y033033D01*
X022463Y033056D01*
X022498Y033076D01*
X022534Y033092D01*
X022572Y033105D01*
X022611Y033114D01*
X022650Y033119D01*
X022690Y033120D01*
X022730Y033117D01*
X022769Y033110D01*
X022807Y033099D01*
X022845Y033085D01*
X022880Y033066D01*
X022913Y033045D01*
X022945Y033020D01*
X022973Y032992D01*
X022999Y032962D01*
X023021Y032929D01*
X023040Y032894D01*
X023056Y032857D01*
X023068Y032819D01*
X023076Y032780D01*
X023080Y032740D01*
X023080Y032700D01*
X023076Y032660D01*
X023068Y032621D01*
X023056Y032583D01*
X023040Y032546D01*
X023021Y032511D01*
X022999Y032478D01*
X022973Y032448D01*
X022945Y032420D01*
X022913Y032395D01*
X022880Y032374D01*
X022845Y032355D01*
X022807Y032341D01*
X022769Y032330D01*
X022730Y032323D01*
X022690Y032320D01*
X022650Y032321D01*
X022611Y032326D01*
X022572Y032335D01*
X022534Y032348D01*
X022498Y032364D01*
X022463Y032384D01*
X022431Y032407D01*
X022401Y032434D01*
X022374Y032463D01*
X022350Y032495D01*
X022329Y032529D01*
X022311Y032565D01*
X022298Y032602D01*
X022288Y032641D01*
X022282Y032680D01*
X022280Y032720D01*
X004550Y038220D02*
X004552Y038270D01*
X004558Y038320D01*
X004568Y038369D01*
X004582Y038417D01*
X004599Y038464D01*
X004620Y038509D01*
X004645Y038553D01*
X004673Y038594D01*
X004705Y038633D01*
X004739Y038670D01*
X004776Y038704D01*
X004816Y038734D01*
X004858Y038761D01*
X004902Y038785D01*
X004948Y038806D01*
X004995Y038822D01*
X005043Y038835D01*
X005093Y038844D01*
X005142Y038849D01*
X005193Y038850D01*
X005243Y038847D01*
X005292Y038840D01*
X005341Y038829D01*
X005389Y038814D01*
X005435Y038796D01*
X005480Y038774D01*
X005523Y038748D01*
X005564Y038719D01*
X005603Y038687D01*
X005639Y038652D01*
X005671Y038614D01*
X005701Y038574D01*
X005728Y038531D01*
X005751Y038487D01*
X005770Y038441D01*
X005786Y038393D01*
X005798Y038344D01*
X005806Y038295D01*
X005810Y038245D01*
X005810Y038195D01*
X005806Y038145D01*
X005798Y038096D01*
X005786Y038047D01*
X005770Y037999D01*
X005751Y037953D01*
X005728Y037909D01*
X005701Y037866D01*
X005671Y037826D01*
X005639Y037788D01*
X005603Y037753D01*
X005564Y037721D01*
X005523Y037692D01*
X005480Y037666D01*
X005435Y037644D01*
X005389Y037626D01*
X005341Y037611D01*
X005292Y037600D01*
X005243Y037593D01*
X005193Y037590D01*
X005142Y037591D01*
X005093Y037596D01*
X005043Y037605D01*
X004995Y037618D01*
X004948Y037634D01*
X004902Y037655D01*
X004858Y037679D01*
X004816Y037706D01*
X004776Y037736D01*
X004739Y037770D01*
X004705Y037807D01*
X004673Y037846D01*
X004645Y037887D01*
X004620Y037931D01*
X004599Y037976D01*
X004582Y038023D01*
X004568Y038071D01*
X004558Y038120D01*
X004552Y038170D01*
X004550Y038220D01*
X039550Y038220D02*
X039552Y038270D01*
X039558Y038320D01*
X039568Y038369D01*
X039582Y038417D01*
X039599Y038464D01*
X039620Y038509D01*
X039645Y038553D01*
X039673Y038594D01*
X039705Y038633D01*
X039739Y038670D01*
X039776Y038704D01*
X039816Y038734D01*
X039858Y038761D01*
X039902Y038785D01*
X039948Y038806D01*
X039995Y038822D01*
X040043Y038835D01*
X040093Y038844D01*
X040142Y038849D01*
X040193Y038850D01*
X040243Y038847D01*
X040292Y038840D01*
X040341Y038829D01*
X040389Y038814D01*
X040435Y038796D01*
X040480Y038774D01*
X040523Y038748D01*
X040564Y038719D01*
X040603Y038687D01*
X040639Y038652D01*
X040671Y038614D01*
X040701Y038574D01*
X040728Y038531D01*
X040751Y038487D01*
X040770Y038441D01*
X040786Y038393D01*
X040798Y038344D01*
X040806Y038295D01*
X040810Y038245D01*
X040810Y038195D01*
X040806Y038145D01*
X040798Y038096D01*
X040786Y038047D01*
X040770Y037999D01*
X040751Y037953D01*
X040728Y037909D01*
X040701Y037866D01*
X040671Y037826D01*
X040639Y037788D01*
X040603Y037753D01*
X040564Y037721D01*
X040523Y037692D01*
X040480Y037666D01*
X040435Y037644D01*
X040389Y037626D01*
X040341Y037611D01*
X040292Y037600D01*
X040243Y037593D01*
X040193Y037590D01*
X040142Y037591D01*
X040093Y037596D01*
X040043Y037605D01*
X039995Y037618D01*
X039948Y037634D01*
X039902Y037655D01*
X039858Y037679D01*
X039816Y037706D01*
X039776Y037736D01*
X039739Y037770D01*
X039705Y037807D01*
X039673Y037846D01*
X039645Y037887D01*
X039620Y037931D01*
X039599Y037976D01*
X039582Y038023D01*
X039568Y038071D01*
X039558Y038120D01*
X039552Y038170D01*
X039550Y038220D01*
X039550Y003220D02*
X039552Y003270D01*
X039558Y003320D01*
X039568Y003369D01*
X039582Y003417D01*
X039599Y003464D01*
X039620Y003509D01*
X039645Y003553D01*
X039673Y003594D01*
X039705Y003633D01*
X039739Y003670D01*
X039776Y003704D01*
X039816Y003734D01*
X039858Y003761D01*
X039902Y003785D01*
X039948Y003806D01*
X039995Y003822D01*
X040043Y003835D01*
X040093Y003844D01*
X040142Y003849D01*
X040193Y003850D01*
X040243Y003847D01*
X040292Y003840D01*
X040341Y003829D01*
X040389Y003814D01*
X040435Y003796D01*
X040480Y003774D01*
X040523Y003748D01*
X040564Y003719D01*
X040603Y003687D01*
X040639Y003652D01*
X040671Y003614D01*
X040701Y003574D01*
X040728Y003531D01*
X040751Y003487D01*
X040770Y003441D01*
X040786Y003393D01*
X040798Y003344D01*
X040806Y003295D01*
X040810Y003245D01*
X040810Y003195D01*
X040806Y003145D01*
X040798Y003096D01*
X040786Y003047D01*
X040770Y002999D01*
X040751Y002953D01*
X040728Y002909D01*
X040701Y002866D01*
X040671Y002826D01*
X040639Y002788D01*
X040603Y002753D01*
X040564Y002721D01*
X040523Y002692D01*
X040480Y002666D01*
X040435Y002644D01*
X040389Y002626D01*
X040341Y002611D01*
X040292Y002600D01*
X040243Y002593D01*
X040193Y002590D01*
X040142Y002591D01*
X040093Y002596D01*
X040043Y002605D01*
X039995Y002618D01*
X039948Y002634D01*
X039902Y002655D01*
X039858Y002679D01*
X039816Y002706D01*
X039776Y002736D01*
X039739Y002770D01*
X039705Y002807D01*
X039673Y002846D01*
X039645Y002887D01*
X039620Y002931D01*
X039599Y002976D01*
X039582Y003023D01*
X039568Y003071D01*
X039558Y003120D01*
X039552Y003170D01*
X039550Y003220D01*
D11*
X035570Y005940D03*
X033790Y005940D03*
X033790Y008500D03*
X035570Y008500D03*
X037790Y009940D03*
X039570Y009940D03*
X039570Y012500D03*
X037790Y012500D03*
X035570Y013940D03*
X033790Y013940D03*
X031570Y012500D03*
X029790Y012500D03*
X029790Y009940D03*
X031570Y009940D03*
X033790Y016500D03*
X035570Y016500D03*
D12*
X024440Y012720D02*
X023920Y012720D01*
X023920Y011720D02*
X024440Y011720D01*
X024440Y010720D02*
X023920Y010720D01*
X023920Y009720D02*
X024440Y009720D01*
X021440Y009720D02*
X020920Y009720D01*
X020920Y010720D02*
X021440Y010720D01*
X021440Y011720D02*
X020920Y011720D01*
X020920Y012720D02*
X021440Y012720D01*
D13*
X022267Y016720D03*
X023093Y016720D03*
D14*
X023680Y025720D03*
X021680Y025720D03*
D15*
X022328Y026239D02*
X023343Y026239D01*
X023429Y026325D02*
X023075Y025971D01*
X023075Y025740D01*
X023660Y025740D01*
X023660Y026325D01*
X023429Y026325D01*
X023660Y026239D02*
X023700Y026239D01*
X023700Y026325D02*
X023931Y026325D01*
X024285Y025971D01*
X024285Y025740D01*
X023700Y025740D01*
X023700Y025700D01*
X024285Y025700D01*
X024285Y025469D01*
X023931Y025115D01*
X023700Y025115D01*
X023700Y025700D01*
X023660Y025700D01*
X023660Y025115D01*
X023429Y025115D01*
X023075Y025469D01*
X023075Y025700D01*
X023660Y025700D01*
X023660Y025740D01*
X023700Y025740D01*
X023700Y026325D01*
X023700Y026080D02*
X023660Y026080D01*
X023660Y025922D02*
X023700Y025922D01*
X023700Y025763D02*
X023660Y025763D01*
X023660Y025605D02*
X023700Y025605D01*
X023700Y025446D02*
X023660Y025446D01*
X023660Y025288D02*
X023700Y025288D01*
X023700Y025129D02*
X023660Y025129D01*
X023415Y025129D02*
X022256Y025129D01*
X022414Y025288D02*
X023257Y025288D01*
X023098Y025446D02*
X022505Y025446D01*
X022505Y025378D02*
X022505Y026062D01*
X022022Y026545D01*
X021338Y026545D01*
X020855Y026062D01*
X020855Y025744D01*
X019171Y024060D01*
X019080Y023839D01*
X019080Y013601D01*
X019171Y013380D01*
X019340Y013211D01*
X020171Y012380D01*
X020340Y012211D01*
X020438Y012171D01*
X020360Y012094D01*
X020260Y011851D01*
X020260Y011589D01*
X020360Y011346D01*
X020487Y011220D01*
X020360Y011094D01*
X020260Y010851D01*
X020260Y010589D01*
X020360Y010346D01*
X020487Y010220D01*
X020360Y010094D01*
X020260Y009851D01*
X020260Y009589D01*
X020360Y009346D01*
X020546Y009160D01*
X020789Y009060D01*
X020991Y009060D01*
X022171Y007880D01*
X022340Y007711D01*
X022561Y007620D01*
X026299Y007620D01*
X026520Y007711D01*
X029104Y010295D01*
X029020Y010093D01*
X029020Y009787D01*
X029137Y009504D01*
X029354Y009287D01*
X029637Y009170D01*
X029943Y009170D01*
X030226Y009287D01*
X030443Y009504D01*
X030560Y009787D01*
X030560Y010093D01*
X030443Y010376D01*
X030226Y010593D01*
X030160Y010620D01*
X030799Y010620D01*
X031020Y010711D01*
X031180Y010871D01*
X031340Y010711D01*
X031380Y010695D01*
X031134Y010593D01*
X030917Y010376D01*
X030800Y010093D01*
X030800Y009787D01*
X030917Y009504D01*
X031134Y009287D01*
X031417Y009170D01*
X031723Y009170D01*
X032006Y009287D01*
X032223Y009504D01*
X032340Y009787D01*
X032340Y010093D01*
X032223Y010376D01*
X032006Y010593D01*
X031940Y010620D01*
X036080Y010620D01*
X036080Y009969D01*
X035356Y009245D01*
X035134Y009153D01*
X034917Y008936D01*
X034800Y008653D01*
X034800Y008347D01*
X034917Y008064D01*
X035134Y007847D01*
X035417Y007730D01*
X035723Y007730D01*
X036006Y007847D01*
X036223Y008064D01*
X036275Y008189D01*
X036291Y008205D01*
X036370Y008397D01*
X036370Y008561D01*
X036929Y009120D01*
X037659Y009120D01*
X037757Y009113D01*
X037777Y009120D01*
X037799Y009120D01*
X037890Y009158D01*
X037927Y009170D01*
X037943Y009170D01*
X038226Y009287D01*
X038443Y009504D01*
X038560Y009787D01*
X038560Y010093D01*
X038443Y010376D01*
X038226Y010593D01*
X037943Y010710D01*
X037637Y010710D01*
X037354Y010593D01*
X037280Y010519D01*
X037280Y011921D01*
X037354Y011847D01*
X037637Y011730D01*
X037943Y011730D01*
X038226Y011847D01*
X038443Y012064D01*
X038560Y012347D01*
X038560Y012653D01*
X038443Y012936D01*
X038226Y013153D01*
X037943Y013270D01*
X037637Y013270D01*
X037354Y013153D01*
X037280Y013079D01*
X037280Y015339D01*
X037189Y015560D01*
X037020Y015729D01*
X036340Y016409D01*
X036340Y016653D01*
X036223Y016936D01*
X036006Y017153D01*
X035723Y017270D01*
X035417Y017270D01*
X035134Y017153D01*
X034917Y016936D01*
X034800Y016653D01*
X034800Y016347D01*
X034917Y016064D01*
X035134Y015847D01*
X035254Y015797D01*
X035331Y015718D01*
X035336Y015715D01*
X036080Y014971D01*
X036080Y014519D01*
X036006Y014593D01*
X035723Y014710D01*
X035417Y014710D01*
X035134Y014593D01*
X034917Y014376D01*
X034800Y014093D01*
X034800Y013787D01*
X034917Y013504D01*
X035134Y013287D01*
X035417Y013170D01*
X035723Y013170D01*
X036006Y013287D01*
X036080Y013361D01*
X036080Y011820D01*
X032130Y011820D01*
X032182Y011871D01*
X032185Y011876D01*
X032189Y011880D01*
X032232Y011985D01*
X032278Y012090D01*
X032278Y012095D01*
X032280Y012101D01*
X032280Y012202D01*
X032340Y012347D01*
X032340Y012653D01*
X032223Y012936D01*
X032006Y013153D01*
X031723Y013270D01*
X031417Y013270D01*
X031134Y013153D01*
X030917Y012936D01*
X030800Y012653D01*
X030800Y012347D01*
X030846Y012235D01*
X030840Y012229D01*
X030671Y012060D01*
X030671Y012060D01*
X030431Y011820D01*
X030160Y011820D01*
X030226Y011847D01*
X030443Y012064D01*
X030560Y012347D01*
X030560Y012653D01*
X030443Y012936D01*
X030226Y013153D01*
X029943Y013270D01*
X029637Y013270D01*
X029354Y013153D01*
X029137Y012936D01*
X029020Y012653D01*
X029020Y012347D01*
X029137Y012064D01*
X029354Y011847D01*
X029420Y011820D01*
X029061Y011820D01*
X028840Y011729D01*
X028671Y011560D01*
X025931Y008820D01*
X022929Y008820D01*
X022100Y009649D01*
X022100Y009851D01*
X022000Y010094D01*
X021873Y010220D01*
X022000Y010346D01*
X022100Y010589D01*
X022100Y010851D01*
X022000Y011094D01*
X021922Y011171D01*
X022020Y011211D01*
X022520Y011711D01*
X022689Y011880D01*
X022780Y012101D01*
X022780Y016195D01*
X022842Y016257D01*
X022861Y016304D01*
X023055Y016304D01*
X023055Y016682D01*
X023131Y016682D01*
X023131Y016304D01*
X023353Y016304D01*
X023399Y016316D01*
X023440Y016340D01*
X023474Y016373D01*
X023497Y016414D01*
X023510Y016460D01*
X023510Y016682D01*
X023132Y016682D01*
X023132Y016758D01*
X023510Y016758D01*
X023510Y016980D01*
X023497Y017026D01*
X023474Y017067D01*
X023440Y017100D01*
X023399Y017124D01*
X023353Y017136D01*
X023131Y017136D01*
X023131Y016758D01*
X023055Y016758D01*
X023055Y017136D01*
X022861Y017136D01*
X022842Y017183D01*
X022729Y017295D01*
X022582Y017356D01*
X021951Y017356D01*
X021804Y017295D01*
X021691Y017183D01*
X021630Y017036D01*
X021630Y016874D01*
X021580Y016753D01*
X021580Y013376D01*
X021571Y013380D01*
X020869Y013380D01*
X020280Y013969D01*
X020280Y023471D01*
X021704Y024895D01*
X022022Y024895D01*
X022505Y025378D01*
X022505Y025605D02*
X023075Y025605D01*
X023075Y025763D02*
X022505Y025763D01*
X022505Y025922D02*
X023075Y025922D01*
X023184Y026080D02*
X022487Y026080D01*
X022170Y026397D02*
X042280Y026397D01*
X042280Y026239D02*
X024017Y026239D01*
X024176Y026080D02*
X042280Y026080D01*
X042280Y025922D02*
X024285Y025922D01*
X024285Y025763D02*
X042280Y025763D01*
X042280Y025605D02*
X024285Y025605D01*
X024262Y025446D02*
X042280Y025446D01*
X042280Y025288D02*
X024103Y025288D01*
X023945Y025129D02*
X042280Y025129D01*
X042280Y024971D02*
X022097Y024971D01*
X021621Y024812D02*
X042280Y024812D01*
X042280Y024654D02*
X021462Y024654D01*
X021304Y024495D02*
X042280Y024495D01*
X042280Y024337D02*
X021145Y024337D01*
X020987Y024178D02*
X042280Y024178D01*
X042280Y024020D02*
X020828Y024020D01*
X020670Y023861D02*
X042280Y023861D01*
X042280Y023703D02*
X020511Y023703D01*
X020353Y023544D02*
X042280Y023544D01*
X042280Y023386D02*
X020280Y023386D01*
X020280Y023227D02*
X042280Y023227D01*
X042280Y023069D02*
X020280Y023069D01*
X020280Y022910D02*
X042280Y022910D01*
X042280Y022752D02*
X020280Y022752D01*
X020280Y022593D02*
X042280Y022593D01*
X042280Y022435D02*
X020280Y022435D01*
X020280Y022276D02*
X042280Y022276D01*
X042280Y022118D02*
X020280Y022118D01*
X020280Y021959D02*
X042280Y021959D01*
X042280Y021801D02*
X020280Y021801D01*
X020280Y021642D02*
X042280Y021642D01*
X042280Y021484D02*
X020280Y021484D01*
X020280Y021325D02*
X042280Y021325D01*
X042280Y021167D02*
X020280Y021167D01*
X020280Y021008D02*
X042280Y021008D01*
X042280Y020850D02*
X020280Y020850D01*
X020280Y020691D02*
X042280Y020691D01*
X042280Y020533D02*
X020280Y020533D01*
X020280Y020374D02*
X042280Y020374D01*
X042280Y020216D02*
X020280Y020216D01*
X020280Y020057D02*
X042280Y020057D01*
X042280Y019899D02*
X020280Y019899D01*
X020280Y019740D02*
X042280Y019740D01*
X042280Y019582D02*
X020280Y019582D01*
X020280Y019423D02*
X042280Y019423D01*
X042280Y019265D02*
X020280Y019265D01*
X020280Y019106D02*
X042280Y019106D01*
X042280Y018948D02*
X020280Y018948D01*
X020280Y018789D02*
X042280Y018789D01*
X042280Y018631D02*
X020280Y018631D01*
X020280Y018472D02*
X042280Y018472D01*
X042280Y018314D02*
X020280Y018314D01*
X020280Y018155D02*
X042280Y018155D01*
X042280Y017997D02*
X020280Y017997D01*
X020280Y017838D02*
X042280Y017838D01*
X042280Y017680D02*
X020280Y017680D01*
X020280Y017521D02*
X042280Y017521D01*
X042280Y017363D02*
X020280Y017363D01*
X020280Y017204D02*
X021713Y017204D01*
X021634Y017046D02*
X020280Y017046D01*
X020280Y016887D02*
X021630Y016887D01*
X021580Y016729D02*
X020280Y016729D01*
X020280Y016570D02*
X021580Y016570D01*
X021580Y016412D02*
X020280Y016412D01*
X020280Y016253D02*
X021580Y016253D01*
X021580Y016095D02*
X020280Y016095D01*
X020280Y015936D02*
X021580Y015936D01*
X021580Y015778D02*
X020280Y015778D01*
X020280Y015619D02*
X021580Y015619D01*
X021580Y015461D02*
X020280Y015461D01*
X020280Y015302D02*
X021580Y015302D01*
X021580Y015144D02*
X020280Y015144D01*
X020280Y014985D02*
X021580Y014985D01*
X021580Y014827D02*
X020280Y014827D01*
X020280Y014668D02*
X021580Y014668D01*
X021580Y014510D02*
X020280Y014510D01*
X020280Y014351D02*
X021580Y014351D01*
X021580Y014193D02*
X020280Y014193D01*
X020280Y014034D02*
X021580Y014034D01*
X021580Y013876D02*
X020373Y013876D01*
X020532Y013717D02*
X021580Y013717D01*
X021580Y013559D02*
X020690Y013559D01*
X020849Y013400D02*
X021580Y013400D01*
X022780Y013400D02*
X033241Y013400D01*
X033137Y013504D02*
X033354Y013287D01*
X033637Y013170D01*
X033943Y013170D01*
X034226Y013287D01*
X034443Y013504D01*
X034560Y013787D01*
X034560Y014093D01*
X034443Y014376D01*
X034226Y014593D01*
X033943Y014710D01*
X033637Y014710D01*
X033354Y014593D01*
X033137Y014376D01*
X033020Y014093D01*
X033020Y013787D01*
X033137Y013504D01*
X033115Y013559D02*
X022780Y013559D01*
X022780Y013717D02*
X033049Y013717D01*
X033020Y013876D02*
X022780Y013876D01*
X022780Y014034D02*
X033020Y014034D01*
X033061Y014193D02*
X022780Y014193D01*
X022780Y014351D02*
X033127Y014351D01*
X033271Y014510D02*
X022780Y014510D01*
X022780Y014668D02*
X033535Y014668D01*
X034045Y014668D02*
X035315Y014668D01*
X035051Y014510D02*
X034309Y014510D01*
X034453Y014351D02*
X034907Y014351D01*
X034841Y014193D02*
X034519Y014193D01*
X034560Y014034D02*
X034800Y014034D01*
X034800Y013876D02*
X034560Y013876D01*
X034531Y013717D02*
X034829Y013717D01*
X034895Y013559D02*
X034465Y013559D01*
X034339Y013400D02*
X035021Y013400D01*
X035244Y013242D02*
X034116Y013242D01*
X033464Y013242D02*
X031792Y013242D01*
X032076Y013083D02*
X036080Y013083D01*
X036080Y012925D02*
X032228Y012925D01*
X032293Y012766D02*
X036080Y012766D01*
X036080Y012608D02*
X032340Y012608D01*
X032340Y012449D02*
X036080Y012449D01*
X036080Y012291D02*
X032317Y012291D01*
X032280Y012132D02*
X036080Y012132D01*
X036080Y011974D02*
X032227Y011974D01*
X030840Y012229D02*
X030840Y012229D01*
X030823Y012291D02*
X030537Y012291D01*
X030560Y012449D02*
X030800Y012449D01*
X030800Y012608D02*
X030560Y012608D01*
X030513Y012766D02*
X030847Y012766D01*
X030912Y012925D02*
X030448Y012925D01*
X030296Y013083D02*
X031064Y013083D01*
X031348Y013242D02*
X030012Y013242D01*
X029568Y013242D02*
X022780Y013242D01*
X022780Y013083D02*
X023671Y013083D01*
X023689Y013096D02*
X023633Y013056D01*
X023584Y013007D01*
X023544Y012951D01*
X023512Y012889D01*
X023491Y012823D01*
X023480Y012755D01*
X023480Y012720D01*
X024180Y012720D01*
X024180Y012720D01*
X024180Y013160D01*
X024475Y013160D01*
X024543Y013149D01*
X024609Y013128D01*
X024671Y013096D01*
X024727Y013056D01*
X024776Y013007D01*
X024816Y012951D01*
X024848Y012889D01*
X024869Y012823D01*
X024880Y012755D01*
X024880Y012720D01*
X024180Y012720D01*
X024180Y012720D01*
X024180Y013160D01*
X023885Y013160D01*
X023817Y013149D01*
X023751Y013128D01*
X023689Y013096D01*
X023530Y012925D02*
X022780Y012925D01*
X022780Y012766D02*
X023482Y012766D01*
X023480Y012720D02*
X023480Y012685D01*
X023491Y012617D01*
X023512Y012551D01*
X023544Y012489D01*
X023584Y012433D01*
X023633Y012384D01*
X023689Y012344D01*
X023695Y012341D01*
X023546Y012280D01*
X023360Y012094D01*
X023260Y011851D01*
X023260Y011589D01*
X023360Y011346D01*
X023487Y011220D01*
X023360Y011094D01*
X023260Y010851D01*
X023260Y010589D01*
X023360Y010346D01*
X023487Y010220D01*
X023360Y010094D01*
X023260Y009851D01*
X023260Y009589D01*
X023360Y009346D01*
X023546Y009160D01*
X023789Y009060D01*
X024571Y009060D01*
X024814Y009160D01*
X025000Y009346D01*
X025100Y009589D01*
X025100Y009851D01*
X025000Y010094D01*
X024873Y010220D01*
X025000Y010346D01*
X025100Y010589D01*
X025100Y010851D01*
X025000Y011094D01*
X024873Y011220D01*
X025000Y011346D01*
X025100Y011589D01*
X025100Y011851D01*
X025000Y012094D01*
X024814Y012280D01*
X024665Y012341D01*
X024671Y012344D01*
X024727Y012384D01*
X024776Y012433D01*
X024816Y012489D01*
X024848Y012551D01*
X024869Y012617D01*
X024880Y012685D01*
X024880Y012720D01*
X024180Y012720D01*
X024180Y012720D01*
X023480Y012720D01*
X023494Y012608D02*
X022780Y012608D01*
X022780Y012449D02*
X023573Y012449D01*
X023573Y012291D02*
X022780Y012291D01*
X022780Y012132D02*
X023399Y012132D01*
X023311Y011974D02*
X022727Y011974D01*
X022624Y011815D02*
X023260Y011815D01*
X023260Y011657D02*
X022465Y011657D01*
X022307Y011498D02*
X023298Y011498D01*
X023367Y011340D02*
X022148Y011340D01*
X021947Y011181D02*
X023448Y011181D01*
X023331Y011023D02*
X022029Y011023D01*
X022095Y010864D02*
X023265Y010864D01*
X023260Y010706D02*
X022100Y010706D01*
X022083Y010547D02*
X023277Y010547D01*
X023343Y010389D02*
X022017Y010389D01*
X021883Y010230D02*
X023477Y010230D01*
X023351Y010072D02*
X022009Y010072D01*
X022074Y009913D02*
X023286Y009913D01*
X023260Y009755D02*
X022100Y009755D01*
X022153Y009596D02*
X023260Y009596D01*
X023323Y009438D02*
X022311Y009438D01*
X022470Y009279D02*
X023428Y009279D01*
X023643Y009121D02*
X022628Y009121D01*
X022787Y008962D02*
X026073Y008962D01*
X026232Y009121D02*
X024717Y009121D01*
X024932Y009279D02*
X026390Y009279D01*
X026549Y009438D02*
X025037Y009438D01*
X025100Y009596D02*
X026707Y009596D01*
X026866Y009755D02*
X025100Y009755D01*
X025074Y009913D02*
X027024Y009913D01*
X027183Y010072D02*
X025009Y010072D01*
X024883Y010230D02*
X027341Y010230D01*
X027500Y010389D02*
X025017Y010389D01*
X025083Y010547D02*
X027658Y010547D01*
X027817Y010706D02*
X025100Y010706D01*
X025095Y010864D02*
X027975Y010864D01*
X028134Y011023D02*
X025029Y011023D01*
X024912Y011181D02*
X028292Y011181D01*
X028451Y011340D02*
X024993Y011340D01*
X025062Y011498D02*
X028609Y011498D01*
X028768Y011657D02*
X025100Y011657D01*
X025100Y011815D02*
X029049Y011815D01*
X029228Y011974D02*
X025049Y011974D01*
X024961Y012132D02*
X029109Y012132D01*
X029043Y012291D02*
X024787Y012291D01*
X024787Y012449D02*
X029020Y012449D01*
X029020Y012608D02*
X024866Y012608D01*
X024878Y012766D02*
X029067Y012766D01*
X029132Y012925D02*
X024830Y012925D01*
X024689Y013083D02*
X029284Y013083D01*
X030471Y012132D02*
X030743Y012132D01*
X030585Y011974D02*
X030352Y011974D01*
X031173Y010864D02*
X031187Y010864D01*
X031354Y010706D02*
X031006Y010706D01*
X031088Y010547D02*
X030272Y010547D01*
X030430Y010389D02*
X030930Y010389D01*
X030857Y010230D02*
X030503Y010230D01*
X030560Y010072D02*
X030800Y010072D01*
X030800Y009913D02*
X030560Y009913D01*
X030547Y009755D02*
X030813Y009755D01*
X030879Y009596D02*
X030481Y009596D01*
X030376Y009438D02*
X030984Y009438D01*
X031154Y009279D02*
X030206Y009279D01*
X029374Y009279D02*
X028088Y009279D01*
X028246Y009438D02*
X029204Y009438D01*
X029099Y009596D02*
X028405Y009596D01*
X028563Y009755D02*
X029033Y009755D01*
X029020Y009913D02*
X028722Y009913D01*
X028880Y010072D02*
X029020Y010072D01*
X029039Y010230D02*
X029077Y010230D01*
X027929Y009121D02*
X033322Y009121D01*
X033354Y009153D02*
X033137Y008936D01*
X033020Y008653D01*
X033020Y008347D01*
X033137Y008064D01*
X033354Y007847D01*
X033637Y007730D01*
X033943Y007730D01*
X034226Y007847D01*
X034443Y008064D01*
X034560Y008347D01*
X034560Y008653D01*
X034443Y008936D01*
X034226Y009153D01*
X033943Y009270D01*
X033637Y009270D01*
X033354Y009153D01*
X033163Y008962D02*
X027771Y008962D01*
X027612Y008804D02*
X033082Y008804D01*
X033020Y008645D02*
X027454Y008645D01*
X027295Y008487D02*
X033020Y008487D01*
X033028Y008328D02*
X027137Y008328D01*
X026978Y008170D02*
X033093Y008170D01*
X033190Y008011D02*
X026820Y008011D01*
X026661Y007853D02*
X033349Y007853D01*
X034231Y007853D02*
X035129Y007853D01*
X034970Y008011D02*
X034390Y008011D01*
X034487Y008170D02*
X034873Y008170D01*
X034808Y008328D02*
X034552Y008328D01*
X034560Y008487D02*
X034800Y008487D01*
X034800Y008645D02*
X034560Y008645D01*
X034498Y008804D02*
X034862Y008804D01*
X034943Y008962D02*
X034417Y008962D01*
X034258Y009121D02*
X035102Y009121D01*
X035390Y009279D02*
X031986Y009279D01*
X032156Y009438D02*
X035549Y009438D01*
X035707Y009596D02*
X032261Y009596D01*
X032327Y009755D02*
X035866Y009755D01*
X036024Y009913D02*
X032340Y009913D01*
X032340Y010072D02*
X036080Y010072D01*
X036080Y010230D02*
X032283Y010230D01*
X032210Y010389D02*
X036080Y010389D01*
X036080Y010547D02*
X032052Y010547D01*
X033637Y006710D02*
X033354Y006593D01*
X033137Y006376D01*
X033020Y006093D01*
X033020Y005787D01*
X033137Y005504D01*
X033354Y005287D01*
X033637Y005170D01*
X033943Y005170D01*
X034226Y005287D01*
X034443Y005504D01*
X034560Y005787D01*
X034560Y006093D01*
X034443Y006376D01*
X034226Y006593D01*
X033943Y006710D01*
X033637Y006710D01*
X033346Y006585D02*
X003080Y006585D01*
X003080Y006743D02*
X042280Y006743D01*
X042280Y006585D02*
X036014Y006585D01*
X036006Y006593D02*
X035723Y006710D01*
X035417Y006710D01*
X035134Y006593D01*
X034917Y006376D01*
X034800Y006093D01*
X034800Y005787D01*
X034917Y005504D01*
X035134Y005287D01*
X035417Y005170D01*
X035723Y005170D01*
X036006Y005287D01*
X036223Y005504D01*
X036340Y005787D01*
X036340Y006093D01*
X036223Y006376D01*
X036006Y006593D01*
X036173Y006426D02*
X042280Y006426D01*
X042280Y006268D02*
X036268Y006268D01*
X036333Y006109D02*
X042280Y006109D01*
X042280Y005951D02*
X036340Y005951D01*
X036340Y005792D02*
X042280Y005792D01*
X042280Y005634D02*
X036276Y005634D01*
X036194Y005475D02*
X042280Y005475D01*
X042280Y005317D02*
X036035Y005317D01*
X035105Y005317D02*
X034255Y005317D01*
X034414Y005475D02*
X034946Y005475D01*
X034864Y005634D02*
X034496Y005634D01*
X034560Y005792D02*
X034800Y005792D01*
X034800Y005951D02*
X034560Y005951D01*
X034553Y006109D02*
X034807Y006109D01*
X034872Y006268D02*
X034488Y006268D01*
X034393Y006426D02*
X034967Y006426D01*
X035126Y006585D02*
X034234Y006585D01*
X033187Y006426D02*
X003080Y006426D01*
X003080Y006268D02*
X033092Y006268D01*
X033027Y006109D02*
X003080Y006109D01*
X003080Y005951D02*
X033020Y005951D01*
X033020Y005792D02*
X003080Y005792D01*
X003080Y005634D02*
X033084Y005634D01*
X033166Y005475D02*
X003080Y005475D01*
X003080Y005317D02*
X033325Y005317D01*
X036011Y007853D02*
X042280Y007853D01*
X042280Y008011D02*
X036170Y008011D01*
X036267Y008170D02*
X042280Y008170D01*
X042280Y008328D02*
X036342Y008328D01*
X036370Y008487D02*
X042280Y008487D01*
X042280Y008645D02*
X036454Y008645D01*
X036612Y008804D02*
X042280Y008804D01*
X042280Y008962D02*
X036771Y008962D01*
X037801Y009121D02*
X042280Y009121D01*
X042280Y009279D02*
X039986Y009279D01*
X040006Y009287D02*
X040223Y009504D01*
X040340Y009787D01*
X040340Y010093D01*
X040223Y010376D01*
X040006Y010593D01*
X039723Y010710D01*
X039417Y010710D01*
X039134Y010593D01*
X038917Y010376D01*
X038800Y010093D01*
X038800Y009787D01*
X038917Y009504D01*
X039134Y009287D01*
X039417Y009170D01*
X039723Y009170D01*
X040006Y009287D01*
X040156Y009438D02*
X042280Y009438D01*
X042280Y009596D02*
X040261Y009596D01*
X040327Y009755D02*
X042280Y009755D01*
X042280Y009913D02*
X040340Y009913D01*
X040340Y010072D02*
X042280Y010072D01*
X042280Y010230D02*
X040283Y010230D01*
X040210Y010389D02*
X042280Y010389D01*
X042280Y010547D02*
X040052Y010547D01*
X039734Y010706D02*
X042280Y010706D01*
X042280Y010864D02*
X037280Y010864D01*
X037280Y010706D02*
X037626Y010706D01*
X037954Y010706D02*
X039406Y010706D01*
X039088Y010547D02*
X038272Y010547D01*
X038430Y010389D02*
X038930Y010389D01*
X038857Y010230D02*
X038503Y010230D01*
X038560Y010072D02*
X038800Y010072D01*
X038800Y009913D02*
X038560Y009913D01*
X038547Y009755D02*
X038813Y009755D01*
X038879Y009596D02*
X038481Y009596D01*
X038376Y009438D02*
X038984Y009438D01*
X039154Y009279D02*
X038206Y009279D01*
X037308Y010547D02*
X037280Y010547D01*
X037280Y011023D02*
X042280Y011023D01*
X042280Y011181D02*
X037280Y011181D01*
X037280Y011340D02*
X042280Y011340D01*
X042280Y011498D02*
X037280Y011498D01*
X037280Y011657D02*
X042280Y011657D01*
X042280Y011815D02*
X039928Y011815D01*
X040006Y011847D02*
X039723Y011730D01*
X039417Y011730D01*
X039134Y011847D01*
X038917Y012064D01*
X038800Y012347D01*
X038800Y012653D01*
X038917Y012936D01*
X039134Y013153D01*
X039417Y013270D01*
X039723Y013270D01*
X040006Y013153D01*
X040223Y012936D01*
X040340Y012653D01*
X040340Y012347D01*
X040223Y012064D01*
X040006Y011847D01*
X040132Y011974D02*
X042280Y011974D01*
X042280Y012132D02*
X040251Y012132D01*
X040317Y012291D02*
X042280Y012291D01*
X042280Y012449D02*
X040340Y012449D01*
X040340Y012608D02*
X042280Y012608D01*
X042280Y012766D02*
X040293Y012766D01*
X040228Y012925D02*
X042280Y012925D01*
X042280Y013083D02*
X040076Y013083D01*
X039792Y013242D02*
X042280Y013242D01*
X042280Y013400D02*
X037280Y013400D01*
X037280Y013242D02*
X037568Y013242D01*
X037284Y013083D02*
X037280Y013083D01*
X037280Y013559D02*
X042280Y013559D01*
X042280Y013717D02*
X037280Y013717D01*
X037280Y013876D02*
X042280Y013876D01*
X042280Y014034D02*
X037280Y014034D01*
X037280Y014193D02*
X042280Y014193D01*
X042280Y014351D02*
X037280Y014351D01*
X037280Y014510D02*
X042280Y014510D01*
X042280Y014668D02*
X037280Y014668D01*
X037280Y014827D02*
X042280Y014827D01*
X042280Y014985D02*
X037280Y014985D01*
X037280Y015144D02*
X042280Y015144D01*
X042280Y015302D02*
X037280Y015302D01*
X037230Y015461D02*
X042280Y015461D01*
X042280Y015619D02*
X037130Y015619D01*
X036971Y015778D02*
X042280Y015778D01*
X042280Y015936D02*
X036813Y015936D01*
X036654Y016095D02*
X042280Y016095D01*
X042280Y016253D02*
X036496Y016253D01*
X036340Y016412D02*
X042280Y016412D01*
X042280Y016570D02*
X036340Y016570D01*
X036309Y016729D02*
X042280Y016729D01*
X042280Y016887D02*
X036243Y016887D01*
X036113Y017046D02*
X042280Y017046D01*
X042280Y017204D02*
X035882Y017204D01*
X035258Y017204D02*
X034102Y017204D01*
X034226Y017153D02*
X033943Y017270D01*
X033637Y017270D01*
X033354Y017153D01*
X033137Y016936D01*
X033020Y016653D01*
X033020Y016347D01*
X033137Y016064D01*
X033354Y015847D01*
X033637Y015730D01*
X033943Y015730D01*
X034226Y015847D01*
X034443Y016064D01*
X034560Y016347D01*
X034560Y016653D01*
X034443Y016936D01*
X034226Y017153D01*
X034333Y017046D02*
X035027Y017046D01*
X034897Y016887D02*
X034463Y016887D01*
X034529Y016729D02*
X034831Y016729D01*
X034800Y016570D02*
X034560Y016570D01*
X034560Y016412D02*
X034800Y016412D01*
X034839Y016253D02*
X034521Y016253D01*
X034455Y016095D02*
X034905Y016095D01*
X035045Y015936D02*
X034315Y015936D01*
X034058Y015778D02*
X035273Y015778D01*
X035432Y015619D02*
X022780Y015619D01*
X022780Y015461D02*
X035591Y015461D01*
X035749Y015302D02*
X022780Y015302D01*
X022780Y015144D02*
X035908Y015144D01*
X036066Y014985D02*
X022780Y014985D01*
X022780Y014827D02*
X036080Y014827D01*
X036080Y014668D02*
X035825Y014668D01*
X035896Y013242D02*
X036080Y013242D01*
X037280Y011815D02*
X037432Y011815D01*
X038148Y011815D02*
X039212Y011815D01*
X039008Y011974D02*
X038352Y011974D01*
X038471Y012132D02*
X038889Y012132D01*
X038823Y012291D02*
X038537Y012291D01*
X038560Y012449D02*
X038800Y012449D01*
X038800Y012608D02*
X038560Y012608D01*
X038513Y012766D02*
X038847Y012766D01*
X038912Y012925D02*
X038448Y012925D01*
X038296Y013083D02*
X039064Y013083D01*
X039348Y013242D02*
X038012Y013242D01*
X033522Y015778D02*
X022780Y015778D01*
X022780Y015936D02*
X033265Y015936D01*
X033125Y016095D02*
X022780Y016095D01*
X022838Y016253D02*
X033059Y016253D01*
X033020Y016412D02*
X023496Y016412D01*
X023510Y016570D02*
X033020Y016570D01*
X033051Y016729D02*
X023132Y016729D01*
X023131Y016887D02*
X023055Y016887D01*
X023055Y017046D02*
X023131Y017046D01*
X022821Y017204D02*
X033478Y017204D01*
X033247Y017046D02*
X023486Y017046D01*
X023510Y016887D02*
X033117Y016887D01*
X024180Y013083D02*
X024180Y013083D01*
X024180Y012925D02*
X024180Y012925D01*
X024180Y012766D02*
X024180Y012766D01*
X020399Y012132D02*
X003080Y012132D01*
X003080Y011974D02*
X020311Y011974D01*
X020260Y011815D02*
X003080Y011815D01*
X003080Y011657D02*
X020260Y011657D01*
X020298Y011498D02*
X003080Y011498D01*
X003080Y011340D02*
X020367Y011340D01*
X020448Y011181D02*
X003080Y011181D01*
X003080Y011023D02*
X020331Y011023D01*
X020265Y010864D02*
X003080Y010864D01*
X003080Y010706D02*
X020260Y010706D01*
X020277Y010547D02*
X003080Y010547D01*
X003080Y010389D02*
X020343Y010389D01*
X020477Y010230D02*
X003080Y010230D01*
X003080Y010072D02*
X020351Y010072D01*
X020286Y009913D02*
X003080Y009913D01*
X003080Y009755D02*
X020260Y009755D01*
X020260Y009596D02*
X003080Y009596D01*
X003080Y009438D02*
X020323Y009438D01*
X020428Y009279D02*
X003080Y009279D01*
X003080Y009121D02*
X020643Y009121D01*
X021089Y008962D02*
X003080Y008962D01*
X003080Y008804D02*
X021248Y008804D01*
X021406Y008645D02*
X003080Y008645D01*
X003080Y008487D02*
X021565Y008487D01*
X021723Y008328D02*
X003080Y008328D01*
X003080Y008170D02*
X021882Y008170D01*
X022040Y008011D02*
X003080Y008011D01*
X003080Y007853D02*
X022199Y007853D01*
X022382Y007694D02*
X003080Y007694D01*
X003080Y007536D02*
X042280Y007536D01*
X042280Y007694D02*
X026478Y007694D01*
X020261Y012291D02*
X003080Y012291D01*
X003080Y012449D02*
X020102Y012449D01*
X020171Y012380D02*
X020171Y012380D01*
X019944Y012608D02*
X003080Y012608D01*
X003080Y012766D02*
X019785Y012766D01*
X019627Y012925D02*
X003080Y012925D01*
X003080Y013083D02*
X019468Y013083D01*
X019340Y013211D02*
X019340Y013211D01*
X019310Y013242D02*
X003080Y013242D01*
X003080Y013400D02*
X019163Y013400D01*
X019097Y013559D02*
X003080Y013559D01*
X003080Y013717D02*
X019080Y013717D01*
X019080Y013876D02*
X003080Y013876D01*
X003080Y014034D02*
X019080Y014034D01*
X019080Y014193D02*
X003080Y014193D01*
X003080Y014351D02*
X019080Y014351D01*
X019080Y014510D02*
X003080Y014510D01*
X003080Y014668D02*
X019080Y014668D01*
X019080Y014827D02*
X003080Y014827D01*
X003080Y014985D02*
X019080Y014985D01*
X019080Y015144D02*
X003080Y015144D01*
X003080Y015302D02*
X019080Y015302D01*
X019080Y015461D02*
X003080Y015461D01*
X003080Y015619D02*
X019080Y015619D01*
X019080Y015778D02*
X003080Y015778D01*
X003080Y015936D02*
X019080Y015936D01*
X019080Y016095D02*
X003080Y016095D01*
X003080Y016253D02*
X019080Y016253D01*
X019080Y016412D02*
X003080Y016412D01*
X003080Y016570D02*
X019080Y016570D01*
X019080Y016729D02*
X003080Y016729D01*
X003080Y016887D02*
X019080Y016887D01*
X019080Y017046D02*
X003080Y017046D01*
X003080Y017204D02*
X019080Y017204D01*
X019080Y017363D02*
X003080Y017363D01*
X003080Y017521D02*
X019080Y017521D01*
X019080Y017680D02*
X003080Y017680D01*
X003080Y017838D02*
X019080Y017838D01*
X019080Y017997D02*
X003080Y017997D01*
X003080Y018155D02*
X019080Y018155D01*
X019080Y018314D02*
X003080Y018314D01*
X003080Y018472D02*
X019080Y018472D01*
X019080Y018631D02*
X003080Y018631D01*
X003080Y018789D02*
X019080Y018789D01*
X019080Y018948D02*
X003080Y018948D01*
X003080Y019106D02*
X019080Y019106D01*
X019080Y019265D02*
X003080Y019265D01*
X003080Y019423D02*
X019080Y019423D01*
X019080Y019582D02*
X003080Y019582D01*
X003080Y019740D02*
X019080Y019740D01*
X019080Y019899D02*
X003080Y019899D01*
X003080Y020057D02*
X019080Y020057D01*
X019080Y020216D02*
X003080Y020216D01*
X003080Y020374D02*
X019080Y020374D01*
X019080Y020533D02*
X003080Y020533D01*
X003080Y020691D02*
X019080Y020691D01*
X019080Y020850D02*
X003080Y020850D01*
X003080Y021008D02*
X019080Y021008D01*
X019080Y021167D02*
X003080Y021167D01*
X003080Y021325D02*
X019080Y021325D01*
X019080Y021484D02*
X003080Y021484D01*
X003080Y021642D02*
X019080Y021642D01*
X019080Y021801D02*
X003080Y021801D01*
X003080Y021959D02*
X019080Y021959D01*
X019080Y022118D02*
X003080Y022118D01*
X003080Y022276D02*
X019080Y022276D01*
X019080Y022435D02*
X003080Y022435D01*
X003080Y022593D02*
X019080Y022593D01*
X019080Y022752D02*
X003080Y022752D01*
X003080Y022910D02*
X019080Y022910D01*
X019080Y023069D02*
X003080Y023069D01*
X003080Y023227D02*
X019080Y023227D01*
X019080Y023386D02*
X003080Y023386D01*
X003080Y023544D02*
X019080Y023544D01*
X019080Y023703D02*
X003080Y023703D01*
X003080Y023861D02*
X019089Y023861D01*
X019155Y024020D02*
X003080Y024020D01*
X003080Y024178D02*
X019290Y024178D01*
X019448Y024337D02*
X003080Y024337D01*
X003080Y024495D02*
X019607Y024495D01*
X019765Y024654D02*
X003080Y024654D01*
X003080Y024812D02*
X019924Y024812D01*
X020082Y024971D02*
X003080Y024971D01*
X003080Y025129D02*
X020241Y025129D01*
X020399Y025288D02*
X003080Y025288D01*
X003080Y025446D02*
X020558Y025446D01*
X020716Y025605D02*
X003080Y025605D01*
X003080Y025763D02*
X020855Y025763D01*
X020855Y025922D02*
X003080Y025922D01*
X003080Y026080D02*
X020873Y026080D01*
X021032Y026239D02*
X003080Y026239D01*
X003080Y026397D02*
X021190Y026397D01*
X022521Y030120D02*
X022227Y030242D01*
X022002Y030467D01*
X021880Y030761D01*
X021880Y031079D01*
X022002Y031373D01*
X022227Y031598D01*
X022521Y031720D01*
X022839Y031720D01*
X023133Y031598D01*
X023358Y031373D01*
X023480Y031079D01*
X023480Y030761D01*
X023358Y030467D01*
X023133Y030242D01*
X022839Y030120D01*
X022521Y030120D01*
X022325Y030201D02*
X003080Y030201D01*
X003080Y030043D02*
X042280Y030043D01*
X042280Y030201D02*
X023035Y030201D01*
X023251Y030360D02*
X042280Y030360D01*
X042280Y030518D02*
X023379Y030518D01*
X023445Y030677D02*
X042280Y030677D01*
X042280Y030835D02*
X023480Y030835D01*
X023480Y030994D02*
X042280Y030994D01*
X042280Y031152D02*
X023450Y031152D01*
X023384Y031311D02*
X042280Y031311D01*
X042280Y031469D02*
X023262Y031469D01*
X023062Y031628D02*
X042280Y031628D01*
X042280Y031786D02*
X003080Y031786D01*
X003080Y031628D02*
X022298Y031628D01*
X022098Y031469D02*
X003080Y031469D01*
X003080Y031311D02*
X021976Y031311D01*
X021910Y031152D02*
X003080Y031152D01*
X003080Y030994D02*
X021880Y030994D01*
X021880Y030835D02*
X003080Y030835D01*
X003080Y030677D02*
X021915Y030677D01*
X021981Y030518D02*
X003080Y030518D01*
X003080Y030360D02*
X022109Y030360D01*
X022521Y031920D02*
X022227Y032042D01*
X022002Y032267D01*
X021880Y032561D01*
X021880Y032879D01*
X022002Y033173D01*
X022227Y033398D01*
X022521Y033520D01*
X022839Y033520D01*
X023133Y033398D01*
X023358Y033173D01*
X023480Y032879D01*
X023480Y032561D01*
X023358Y032267D01*
X023133Y032042D01*
X022839Y031920D01*
X022521Y031920D01*
X022462Y031945D02*
X003080Y031945D01*
X003080Y032103D02*
X022166Y032103D01*
X022007Y032262D02*
X003080Y032262D01*
X003080Y032420D02*
X021938Y032420D01*
X021880Y032579D02*
X003080Y032579D01*
X003080Y032737D02*
X021880Y032737D01*
X021887Y032896D02*
X003080Y032896D01*
X003080Y033054D02*
X021952Y033054D01*
X022041Y033213D02*
X003080Y033213D01*
X003080Y033371D02*
X022200Y033371D01*
X023160Y033371D02*
X042280Y033371D01*
X042280Y033213D02*
X023319Y033213D01*
X023408Y033054D02*
X042280Y033054D01*
X042280Y032896D02*
X023473Y032896D01*
X023480Y032737D02*
X042280Y032737D01*
X042280Y032579D02*
X023480Y032579D01*
X023422Y032420D02*
X042280Y032420D01*
X042280Y032262D02*
X023353Y032262D01*
X023194Y032103D02*
X042280Y032103D01*
X042280Y031945D02*
X022898Y031945D01*
X039220Y037822D02*
X039356Y037588D01*
X039548Y037396D01*
X039782Y037260D01*
X040044Y037190D01*
X040316Y037190D01*
X040578Y037260D01*
X040812Y037396D01*
X041004Y037588D01*
X041140Y037822D01*
X041210Y038084D01*
X041210Y038356D01*
X041140Y038618D01*
X041004Y038852D01*
X040812Y039044D01*
X040578Y039180D01*
X040316Y039250D01*
X040044Y039250D01*
X039782Y039180D01*
X039548Y039044D01*
X039356Y038852D01*
X039220Y038618D01*
X039150Y038356D01*
X039150Y038084D01*
X039220Y037822D01*
X039228Y037809D02*
X006132Y037809D01*
X006140Y037822D02*
X006210Y038084D01*
X006210Y038356D01*
X006140Y038618D01*
X006004Y038852D01*
X005812Y039044D01*
X005578Y039180D01*
X005316Y039250D01*
X005044Y039250D01*
X004782Y039180D01*
X004548Y039044D01*
X004356Y038852D01*
X004220Y038618D01*
X004150Y038356D01*
X004150Y038084D01*
X004220Y037822D01*
X004356Y037588D01*
X004548Y037396D01*
X004782Y037260D01*
X005044Y037190D01*
X005316Y037190D01*
X005578Y037260D01*
X005812Y037396D01*
X006004Y037588D01*
X006140Y037822D01*
X006179Y037968D02*
X039181Y037968D01*
X039150Y038126D02*
X006210Y038126D01*
X006210Y038285D02*
X039150Y038285D01*
X039174Y038443D02*
X006186Y038443D01*
X006144Y038602D02*
X039216Y038602D01*
X039303Y038760D02*
X006057Y038760D01*
X005938Y038919D02*
X039422Y038919D01*
X039605Y039077D02*
X005755Y039077D01*
X005369Y039236D02*
X039991Y039236D01*
X040369Y039236D02*
X041097Y039236D01*
X040938Y039394D02*
X004422Y039394D01*
X004263Y039236D02*
X004991Y039236D01*
X004605Y039077D02*
X004105Y039077D01*
X003946Y038919D02*
X004422Y038919D01*
X004303Y038760D02*
X003787Y038760D01*
X003628Y038602D02*
X004216Y038602D01*
X004174Y038443D02*
X003470Y038443D01*
X003311Y038285D02*
X004150Y038285D01*
X004150Y038126D02*
X003152Y038126D01*
X003080Y038054D02*
X003080Y003386D01*
X005346Y001120D01*
X040014Y001120D01*
X042280Y003386D01*
X042280Y038054D01*
X040014Y040316D01*
X005345Y040316D01*
X003080Y038054D01*
X003080Y037968D02*
X004181Y037968D01*
X004228Y037809D02*
X003080Y037809D01*
X003080Y037651D02*
X004320Y037651D01*
X004451Y037492D02*
X003080Y037492D01*
X003080Y037334D02*
X004656Y037334D01*
X005704Y037334D02*
X039656Y037334D01*
X039451Y037492D02*
X005909Y037492D01*
X006040Y037651D02*
X039320Y037651D01*
X040704Y037334D02*
X042280Y037334D01*
X042280Y037492D02*
X040909Y037492D01*
X041040Y037651D02*
X042280Y037651D01*
X042280Y037809D02*
X041132Y037809D01*
X041179Y037968D02*
X042280Y037968D01*
X042208Y038126D02*
X041210Y038126D01*
X041210Y038285D02*
X042049Y038285D01*
X041890Y038443D02*
X041186Y038443D01*
X041144Y038602D02*
X041732Y038602D01*
X041573Y038760D02*
X041057Y038760D01*
X040938Y038919D02*
X041414Y038919D01*
X041255Y039077D02*
X040755Y039077D01*
X040779Y039553D02*
X004581Y039553D01*
X004740Y039711D02*
X040620Y039711D01*
X040462Y039870D02*
X004898Y039870D01*
X005057Y040028D02*
X040303Y040028D01*
X040144Y040187D02*
X005216Y040187D01*
X003080Y037175D02*
X042280Y037175D01*
X042280Y037017D02*
X003080Y037017D01*
X003080Y036858D02*
X042280Y036858D01*
X042280Y036700D02*
X003080Y036700D01*
X003080Y036541D02*
X042280Y036541D01*
X042280Y036383D02*
X003080Y036383D01*
X003080Y036224D02*
X042280Y036224D01*
X042280Y036066D02*
X003080Y036066D01*
X003080Y035907D02*
X042280Y035907D01*
X042280Y035749D02*
X003080Y035749D01*
X003080Y035590D02*
X042280Y035590D01*
X042280Y035432D02*
X003080Y035432D01*
X003080Y035273D02*
X042280Y035273D01*
X042280Y035115D02*
X003080Y035115D01*
X003080Y034956D02*
X042280Y034956D01*
X042280Y034798D02*
X003080Y034798D01*
X003080Y034639D02*
X042280Y034639D01*
X042280Y034481D02*
X003080Y034481D01*
X003080Y034322D02*
X042280Y034322D01*
X042280Y034164D02*
X003080Y034164D01*
X003080Y034005D02*
X042280Y034005D01*
X042280Y033847D02*
X003080Y033847D01*
X003080Y033688D02*
X042280Y033688D01*
X042280Y033530D02*
X003080Y033530D01*
X003080Y029884D02*
X042280Y029884D01*
X042280Y029726D02*
X003080Y029726D01*
X003080Y029567D02*
X042280Y029567D01*
X042280Y029409D02*
X003080Y029409D01*
X003080Y029250D02*
X042280Y029250D01*
X042280Y029092D02*
X003080Y029092D01*
X003080Y028933D02*
X042280Y028933D01*
X042280Y028775D02*
X003080Y028775D01*
X003080Y028616D02*
X042280Y028616D01*
X042280Y028458D02*
X003080Y028458D01*
X003080Y028299D02*
X042280Y028299D01*
X042280Y028141D02*
X003080Y028141D01*
X003080Y027982D02*
X042280Y027982D01*
X042280Y027824D02*
X003080Y027824D01*
X003080Y027665D02*
X042280Y027665D01*
X042280Y027507D02*
X003080Y027507D01*
X003080Y027348D02*
X042280Y027348D01*
X042280Y027190D02*
X003080Y027190D01*
X003080Y027031D02*
X042280Y027031D01*
X042280Y026873D02*
X003080Y026873D01*
X003080Y026714D02*
X042280Y026714D01*
X042280Y026556D02*
X003080Y026556D01*
X023055Y016570D02*
X023131Y016570D01*
X023131Y016412D02*
X023055Y016412D01*
X039356Y003852D02*
X039220Y003618D01*
X039150Y003356D01*
X039150Y003084D01*
X039220Y002822D01*
X039356Y002588D01*
X039548Y002396D01*
X039782Y002260D01*
X040044Y002190D01*
X040316Y002190D01*
X040578Y002260D01*
X040812Y002396D01*
X041004Y002588D01*
X041140Y002822D01*
X041210Y003084D01*
X041210Y003356D01*
X041140Y003618D01*
X041004Y003852D01*
X040812Y004044D01*
X040578Y004180D01*
X040316Y004250D01*
X040044Y004250D01*
X039782Y004180D01*
X039548Y004044D01*
X039356Y003852D01*
X039393Y003890D02*
X005967Y003890D01*
X006004Y003852D02*
X005812Y004044D01*
X005578Y004180D01*
X005316Y004250D01*
X005044Y004250D01*
X004782Y004180D01*
X004548Y004044D01*
X004356Y003852D01*
X004220Y003618D01*
X004150Y003356D01*
X004150Y003084D01*
X004220Y002822D01*
X004356Y002588D01*
X004548Y002396D01*
X004782Y002260D01*
X005044Y002190D01*
X005316Y002190D01*
X005578Y002260D01*
X005812Y002396D01*
X006004Y002588D01*
X006140Y002822D01*
X006210Y003084D01*
X006210Y003356D01*
X006140Y003618D01*
X006004Y003852D01*
X006074Y003732D02*
X039286Y003732D01*
X039208Y003573D02*
X006152Y003573D01*
X006194Y003415D02*
X039166Y003415D01*
X039150Y003256D02*
X006210Y003256D01*
X006210Y003098D02*
X039150Y003098D01*
X039189Y002939D02*
X006171Y002939D01*
X006116Y002781D02*
X039244Y002781D01*
X039336Y002622D02*
X006024Y002622D01*
X005880Y002464D02*
X039480Y002464D01*
X039705Y002305D02*
X005655Y002305D01*
X004705Y002305D02*
X004161Y002305D01*
X004319Y002147D02*
X041041Y002147D01*
X041199Y002305D02*
X040655Y002305D01*
X040880Y002464D02*
X041358Y002464D01*
X041516Y002622D02*
X041024Y002622D01*
X041116Y002781D02*
X041675Y002781D01*
X041833Y002939D02*
X041171Y002939D01*
X041210Y003098D02*
X041992Y003098D01*
X042150Y003256D02*
X041210Y003256D01*
X041194Y003415D02*
X042280Y003415D01*
X042280Y003573D02*
X041152Y003573D01*
X041074Y003732D02*
X042280Y003732D01*
X042280Y003890D02*
X040967Y003890D01*
X040805Y004049D02*
X042280Y004049D01*
X042280Y004207D02*
X040476Y004207D01*
X039884Y004207D02*
X005476Y004207D01*
X005805Y004049D02*
X039555Y004049D01*
X040882Y001988D02*
X004478Y001988D01*
X004636Y001830D02*
X040724Y001830D01*
X040565Y001671D02*
X004795Y001671D01*
X004953Y001513D02*
X040407Y001513D01*
X040248Y001354D02*
X005112Y001354D01*
X005270Y001196D02*
X040090Y001196D01*
X042280Y004366D02*
X003080Y004366D01*
X003080Y004524D02*
X042280Y004524D01*
X042280Y004683D02*
X003080Y004683D01*
X003080Y004841D02*
X042280Y004841D01*
X042280Y005000D02*
X003080Y005000D01*
X003080Y005158D02*
X042280Y005158D01*
X042280Y006902D02*
X003080Y006902D01*
X003080Y007060D02*
X042280Y007060D01*
X042280Y007219D02*
X003080Y007219D01*
X003080Y007377D02*
X042280Y007377D01*
X004884Y004207D02*
X003080Y004207D01*
X003080Y004049D02*
X004555Y004049D01*
X004393Y003890D02*
X003080Y003890D01*
X003080Y003732D02*
X004286Y003732D01*
X004208Y003573D02*
X003080Y003573D01*
X003080Y003415D02*
X004166Y003415D01*
X004150Y003256D02*
X003210Y003256D01*
X003368Y003098D02*
X004150Y003098D01*
X004189Y002939D02*
X003527Y002939D01*
X003685Y002781D02*
X004244Y002781D01*
X004336Y002622D02*
X003844Y002622D01*
X004002Y002464D02*
X004480Y002464D01*
D16*
X021180Y011720D02*
X021680Y011720D01*
X022180Y016633D02*
X022267Y016720D01*
X035570Y008500D02*
X035850Y008500D01*
D17*
X035680Y008720D02*
X035570Y008500D01*
X035680Y008720D02*
X036680Y009720D01*
X036680Y011220D01*
X031680Y011220D01*
X031180Y011720D01*
X030680Y011220D01*
X029180Y011220D01*
X026180Y008220D01*
X022680Y008220D01*
X021180Y009720D01*
X021680Y011720D02*
X022180Y012220D01*
X022180Y016633D01*
X019680Y013720D02*
X019680Y023720D01*
X021680Y025720D01*
X019680Y013720D02*
X020680Y012720D01*
X021180Y012720D01*
X031180Y011720D02*
X031680Y012220D01*
X031570Y012500D01*
X035680Y016220D02*
X035570Y016500D01*
X035680Y016220D02*
X036680Y015220D01*
X036680Y011220D01*
X036680Y009720D02*
X037680Y009720D01*
X037790Y009940D01*
M02*
