G75*
%MOIN*%
%OFA0B0*%
%FSLAX24Y24*%
%IPPOS*%
%LPD*%
%AMOC8*
5,1,8,0,0,1.08239X$1,22.5*
%
%ADD10C,0.0000*%
%ADD11C,0.0740*%
%ADD12C,0.0520*%
%ADD13R,0.0709X0.1063*%
%ADD14R,0.0945X0.1102*%
%ADD15OC8,0.0850*%
%ADD16C,0.0240*%
%ADD17C,0.0400*%
D10*
X002680Y003220D02*
X005180Y000720D01*
X040180Y000720D01*
X042680Y003220D01*
X042680Y038220D01*
X040180Y040716D01*
X005180Y040716D01*
X002680Y038220D01*
X002680Y003220D01*
X004550Y003220D02*
X004552Y003270D01*
X004558Y003320D01*
X004568Y003369D01*
X004582Y003417D01*
X004599Y003464D01*
X004620Y003509D01*
X004645Y003553D01*
X004673Y003594D01*
X004705Y003633D01*
X004739Y003670D01*
X004776Y003704D01*
X004816Y003734D01*
X004858Y003761D01*
X004902Y003785D01*
X004948Y003806D01*
X004995Y003822D01*
X005043Y003835D01*
X005093Y003844D01*
X005142Y003849D01*
X005193Y003850D01*
X005243Y003847D01*
X005292Y003840D01*
X005341Y003829D01*
X005389Y003814D01*
X005435Y003796D01*
X005480Y003774D01*
X005523Y003748D01*
X005564Y003719D01*
X005603Y003687D01*
X005639Y003652D01*
X005671Y003614D01*
X005701Y003574D01*
X005728Y003531D01*
X005751Y003487D01*
X005770Y003441D01*
X005786Y003393D01*
X005798Y003344D01*
X005806Y003295D01*
X005810Y003245D01*
X005810Y003195D01*
X005806Y003145D01*
X005798Y003096D01*
X005786Y003047D01*
X005770Y002999D01*
X005751Y002953D01*
X005728Y002909D01*
X005701Y002866D01*
X005671Y002826D01*
X005639Y002788D01*
X005603Y002753D01*
X005564Y002721D01*
X005523Y002692D01*
X005480Y002666D01*
X005435Y002644D01*
X005389Y002626D01*
X005341Y002611D01*
X005292Y002600D01*
X005243Y002593D01*
X005193Y002590D01*
X005142Y002591D01*
X005093Y002596D01*
X005043Y002605D01*
X004995Y002618D01*
X004948Y002634D01*
X004902Y002655D01*
X004858Y002679D01*
X004816Y002706D01*
X004776Y002736D01*
X004739Y002770D01*
X004705Y002807D01*
X004673Y002846D01*
X004645Y002887D01*
X004620Y002931D01*
X004599Y002976D01*
X004582Y003023D01*
X004568Y003071D01*
X004558Y003120D01*
X004552Y003170D01*
X004550Y003220D01*
X022280Y030920D02*
X022282Y030960D01*
X022288Y030999D01*
X022298Y031038D01*
X022311Y031075D01*
X022329Y031111D01*
X022350Y031145D01*
X022374Y031177D01*
X022401Y031206D01*
X022431Y031233D01*
X022463Y031256D01*
X022498Y031276D01*
X022534Y031292D01*
X022572Y031305D01*
X022611Y031314D01*
X022650Y031319D01*
X022690Y031320D01*
X022730Y031317D01*
X022769Y031310D01*
X022807Y031299D01*
X022845Y031285D01*
X022880Y031266D01*
X022913Y031245D01*
X022945Y031220D01*
X022973Y031192D01*
X022999Y031162D01*
X023021Y031129D01*
X023040Y031094D01*
X023056Y031057D01*
X023068Y031019D01*
X023076Y030980D01*
X023080Y030940D01*
X023080Y030900D01*
X023076Y030860D01*
X023068Y030821D01*
X023056Y030783D01*
X023040Y030746D01*
X023021Y030711D01*
X022999Y030678D01*
X022973Y030648D01*
X022945Y030620D01*
X022913Y030595D01*
X022880Y030574D01*
X022845Y030555D01*
X022807Y030541D01*
X022769Y030530D01*
X022730Y030523D01*
X022690Y030520D01*
X022650Y030521D01*
X022611Y030526D01*
X022572Y030535D01*
X022534Y030548D01*
X022498Y030564D01*
X022463Y030584D01*
X022431Y030607D01*
X022401Y030634D01*
X022374Y030663D01*
X022350Y030695D01*
X022329Y030729D01*
X022311Y030765D01*
X022298Y030802D01*
X022288Y030841D01*
X022282Y030880D01*
X022280Y030920D01*
X022280Y032720D02*
X022282Y032760D01*
X022288Y032799D01*
X022298Y032838D01*
X022311Y032875D01*
X022329Y032911D01*
X022350Y032945D01*
X022374Y032977D01*
X022401Y033006D01*
X022431Y033033D01*
X022463Y033056D01*
X022498Y033076D01*
X022534Y033092D01*
X022572Y033105D01*
X022611Y033114D01*
X022650Y033119D01*
X022690Y033120D01*
X022730Y033117D01*
X022769Y033110D01*
X022807Y033099D01*
X022845Y033085D01*
X022880Y033066D01*
X022913Y033045D01*
X022945Y033020D01*
X022973Y032992D01*
X022999Y032962D01*
X023021Y032929D01*
X023040Y032894D01*
X023056Y032857D01*
X023068Y032819D01*
X023076Y032780D01*
X023080Y032740D01*
X023080Y032700D01*
X023076Y032660D01*
X023068Y032621D01*
X023056Y032583D01*
X023040Y032546D01*
X023021Y032511D01*
X022999Y032478D01*
X022973Y032448D01*
X022945Y032420D01*
X022913Y032395D01*
X022880Y032374D01*
X022845Y032355D01*
X022807Y032341D01*
X022769Y032330D01*
X022730Y032323D01*
X022690Y032320D01*
X022650Y032321D01*
X022611Y032326D01*
X022572Y032335D01*
X022534Y032348D01*
X022498Y032364D01*
X022463Y032384D01*
X022431Y032407D01*
X022401Y032434D01*
X022374Y032463D01*
X022350Y032495D01*
X022329Y032529D01*
X022311Y032565D01*
X022298Y032602D01*
X022288Y032641D01*
X022282Y032680D01*
X022280Y032720D01*
X004550Y038220D02*
X004552Y038270D01*
X004558Y038320D01*
X004568Y038369D01*
X004582Y038417D01*
X004599Y038464D01*
X004620Y038509D01*
X004645Y038553D01*
X004673Y038594D01*
X004705Y038633D01*
X004739Y038670D01*
X004776Y038704D01*
X004816Y038734D01*
X004858Y038761D01*
X004902Y038785D01*
X004948Y038806D01*
X004995Y038822D01*
X005043Y038835D01*
X005093Y038844D01*
X005142Y038849D01*
X005193Y038850D01*
X005243Y038847D01*
X005292Y038840D01*
X005341Y038829D01*
X005389Y038814D01*
X005435Y038796D01*
X005480Y038774D01*
X005523Y038748D01*
X005564Y038719D01*
X005603Y038687D01*
X005639Y038652D01*
X005671Y038614D01*
X005701Y038574D01*
X005728Y038531D01*
X005751Y038487D01*
X005770Y038441D01*
X005786Y038393D01*
X005798Y038344D01*
X005806Y038295D01*
X005810Y038245D01*
X005810Y038195D01*
X005806Y038145D01*
X005798Y038096D01*
X005786Y038047D01*
X005770Y037999D01*
X005751Y037953D01*
X005728Y037909D01*
X005701Y037866D01*
X005671Y037826D01*
X005639Y037788D01*
X005603Y037753D01*
X005564Y037721D01*
X005523Y037692D01*
X005480Y037666D01*
X005435Y037644D01*
X005389Y037626D01*
X005341Y037611D01*
X005292Y037600D01*
X005243Y037593D01*
X005193Y037590D01*
X005142Y037591D01*
X005093Y037596D01*
X005043Y037605D01*
X004995Y037618D01*
X004948Y037634D01*
X004902Y037655D01*
X004858Y037679D01*
X004816Y037706D01*
X004776Y037736D01*
X004739Y037770D01*
X004705Y037807D01*
X004673Y037846D01*
X004645Y037887D01*
X004620Y037931D01*
X004599Y037976D01*
X004582Y038023D01*
X004568Y038071D01*
X004558Y038120D01*
X004552Y038170D01*
X004550Y038220D01*
X039550Y038220D02*
X039552Y038270D01*
X039558Y038320D01*
X039568Y038369D01*
X039582Y038417D01*
X039599Y038464D01*
X039620Y038509D01*
X039645Y038553D01*
X039673Y038594D01*
X039705Y038633D01*
X039739Y038670D01*
X039776Y038704D01*
X039816Y038734D01*
X039858Y038761D01*
X039902Y038785D01*
X039948Y038806D01*
X039995Y038822D01*
X040043Y038835D01*
X040093Y038844D01*
X040142Y038849D01*
X040193Y038850D01*
X040243Y038847D01*
X040292Y038840D01*
X040341Y038829D01*
X040389Y038814D01*
X040435Y038796D01*
X040480Y038774D01*
X040523Y038748D01*
X040564Y038719D01*
X040603Y038687D01*
X040639Y038652D01*
X040671Y038614D01*
X040701Y038574D01*
X040728Y038531D01*
X040751Y038487D01*
X040770Y038441D01*
X040786Y038393D01*
X040798Y038344D01*
X040806Y038295D01*
X040810Y038245D01*
X040810Y038195D01*
X040806Y038145D01*
X040798Y038096D01*
X040786Y038047D01*
X040770Y037999D01*
X040751Y037953D01*
X040728Y037909D01*
X040701Y037866D01*
X040671Y037826D01*
X040639Y037788D01*
X040603Y037753D01*
X040564Y037721D01*
X040523Y037692D01*
X040480Y037666D01*
X040435Y037644D01*
X040389Y037626D01*
X040341Y037611D01*
X040292Y037600D01*
X040243Y037593D01*
X040193Y037590D01*
X040142Y037591D01*
X040093Y037596D01*
X040043Y037605D01*
X039995Y037618D01*
X039948Y037634D01*
X039902Y037655D01*
X039858Y037679D01*
X039816Y037706D01*
X039776Y037736D01*
X039739Y037770D01*
X039705Y037807D01*
X039673Y037846D01*
X039645Y037887D01*
X039620Y037931D01*
X039599Y037976D01*
X039582Y038023D01*
X039568Y038071D01*
X039558Y038120D01*
X039552Y038170D01*
X039550Y038220D01*
X039550Y003220D02*
X039552Y003270D01*
X039558Y003320D01*
X039568Y003369D01*
X039582Y003417D01*
X039599Y003464D01*
X039620Y003509D01*
X039645Y003553D01*
X039673Y003594D01*
X039705Y003633D01*
X039739Y003670D01*
X039776Y003704D01*
X039816Y003734D01*
X039858Y003761D01*
X039902Y003785D01*
X039948Y003806D01*
X039995Y003822D01*
X040043Y003835D01*
X040093Y003844D01*
X040142Y003849D01*
X040193Y003850D01*
X040243Y003847D01*
X040292Y003840D01*
X040341Y003829D01*
X040389Y003814D01*
X040435Y003796D01*
X040480Y003774D01*
X040523Y003748D01*
X040564Y003719D01*
X040603Y003687D01*
X040639Y003652D01*
X040671Y003614D01*
X040701Y003574D01*
X040728Y003531D01*
X040751Y003487D01*
X040770Y003441D01*
X040786Y003393D01*
X040798Y003344D01*
X040806Y003295D01*
X040810Y003245D01*
X040810Y003195D01*
X040806Y003145D01*
X040798Y003096D01*
X040786Y003047D01*
X040770Y002999D01*
X040751Y002953D01*
X040728Y002909D01*
X040701Y002866D01*
X040671Y002826D01*
X040639Y002788D01*
X040603Y002753D01*
X040564Y002721D01*
X040523Y002692D01*
X040480Y002666D01*
X040435Y002644D01*
X040389Y002626D01*
X040341Y002611D01*
X040292Y002600D01*
X040243Y002593D01*
X040193Y002590D01*
X040142Y002591D01*
X040093Y002596D01*
X040043Y002605D01*
X039995Y002618D01*
X039948Y002634D01*
X039902Y002655D01*
X039858Y002679D01*
X039816Y002706D01*
X039776Y002736D01*
X039739Y002770D01*
X039705Y002807D01*
X039673Y002846D01*
X039645Y002887D01*
X039620Y002931D01*
X039599Y002976D01*
X039582Y003023D01*
X039568Y003071D01*
X039558Y003120D01*
X039552Y003170D01*
X039550Y003220D01*
D11*
X035570Y005940D03*
X033790Y005940D03*
X033790Y008500D03*
X035570Y008500D03*
X037790Y009940D03*
X039570Y009940D03*
X039570Y012500D03*
X037790Y012500D03*
X035570Y013940D03*
X033790Y013940D03*
X031570Y012500D03*
X029790Y012500D03*
X029790Y009940D03*
X031570Y009940D03*
X033790Y016500D03*
X035570Y016500D03*
D12*
X024440Y012720D02*
X023920Y012720D01*
X023920Y011720D02*
X024440Y011720D01*
X024440Y010720D02*
X023920Y010720D01*
X023920Y009720D02*
X024440Y009720D01*
X021440Y009720D02*
X020920Y009720D01*
X020920Y010720D02*
X021440Y010720D01*
X021440Y011720D02*
X020920Y011720D01*
X020920Y012720D02*
X021440Y012720D01*
D13*
X026314Y018720D03*
X028046Y018720D03*
X028046Y021220D03*
X026314Y021220D03*
X026314Y023720D03*
X028046Y023720D03*
X028046Y026220D03*
X026314Y026220D03*
D14*
X024924Y030318D03*
X024924Y032720D03*
X020436Y032720D03*
X020436Y030318D03*
D15*
X021680Y025720D03*
X023680Y025720D03*
D16*
X023680Y025720D01*
X023680Y026365D01*
X023947Y026365D01*
X024200Y026112D01*
X024200Y026815D01*
X024273Y026992D01*
X025273Y027992D01*
X025408Y028127D01*
X025585Y028200D01*
X028275Y028200D01*
X028452Y028127D01*
X028587Y027992D01*
X028660Y027815D01*
X028660Y026919D01*
X032087Y023492D01*
X032160Y023315D01*
X032160Y017200D01*
X033663Y017200D01*
X033741Y017206D01*
X033758Y017200D01*
X033775Y017200D01*
X033848Y017170D01*
X033908Y017150D01*
X033919Y017150D01*
X034158Y017051D01*
X034341Y016868D01*
X034440Y016629D01*
X034440Y016371D01*
X034341Y016132D01*
X034158Y015949D01*
X033919Y015850D01*
X033661Y015850D01*
X033422Y015949D01*
X033239Y016132D01*
X033194Y016240D01*
X031585Y016240D01*
X031408Y016313D01*
X031273Y016448D01*
X031200Y016625D01*
X031200Y023021D01*
X028653Y025568D01*
X028638Y025530D01*
X028559Y025451D01*
X028456Y025409D01*
X027670Y025409D01*
X028452Y024627D01*
X028587Y024492D01*
X028609Y024439D01*
X028638Y024410D01*
X028680Y024307D01*
X028680Y024200D01*
X029275Y024200D01*
X029452Y024127D01*
X029587Y023992D01*
X031087Y022492D01*
X031160Y022315D01*
X031160Y015419D01*
X033587Y012992D01*
X033660Y012815D01*
X033660Y009419D01*
X033936Y009143D01*
X034158Y009051D01*
X034341Y008868D01*
X034440Y008629D01*
X034440Y008371D01*
X034341Y008132D01*
X034158Y007949D01*
X033919Y007850D01*
X033661Y007850D01*
X033422Y007949D01*
X033239Y008132D01*
X033140Y008371D01*
X033140Y008581D01*
X032908Y008813D01*
X032773Y008948D01*
X032700Y009125D01*
X032700Y012521D01*
X030408Y014813D01*
X030273Y014948D01*
X030200Y015125D01*
X030200Y022021D01*
X028981Y023240D01*
X028680Y023240D01*
X028680Y023133D01*
X028638Y023030D01*
X028559Y022951D01*
X028456Y022909D01*
X027636Y022909D01*
X027533Y022951D01*
X027454Y023030D01*
X027412Y023133D01*
X027412Y024307D01*
X027412Y024309D01*
X026313Y025409D01*
X025904Y025409D01*
X025801Y025451D01*
X025722Y025530D01*
X025680Y025633D01*
X025680Y026807D01*
X025722Y026910D01*
X025801Y026989D01*
X025904Y027031D01*
X026724Y027031D01*
X026827Y026989D01*
X026906Y026910D01*
X026948Y026807D01*
X026948Y026131D01*
X027412Y025667D01*
X027412Y026807D01*
X027454Y026910D01*
X027533Y026989D01*
X027636Y027031D01*
X027700Y027031D01*
X027700Y027240D01*
X025879Y027240D01*
X025160Y026521D01*
X025160Y021700D01*
X025680Y021700D01*
X025680Y021807D01*
X025722Y021910D01*
X025801Y021989D01*
X025904Y022031D01*
X026724Y022031D01*
X026731Y022029D01*
X026144Y022909D01*
X025904Y022909D01*
X025801Y022951D01*
X025722Y023030D01*
X025680Y023133D01*
X025680Y024307D01*
X025722Y024410D01*
X025801Y024489D01*
X025904Y024531D01*
X026724Y024531D01*
X026827Y024489D01*
X026906Y024410D01*
X026948Y024307D01*
X026948Y023433D01*
X027437Y022700D01*
X029275Y022700D01*
X029452Y022627D01*
X029952Y022127D01*
X030087Y021992D01*
X030160Y021815D01*
X030160Y013049D01*
X030341Y012868D01*
X030440Y012629D01*
X030440Y012371D01*
X030341Y012132D01*
X030158Y011949D01*
X029919Y011850D01*
X029661Y011850D01*
X029422Y011949D01*
X029239Y012132D01*
X029140Y012371D01*
X029140Y012629D01*
X029196Y012764D01*
X029194Y012781D01*
X029200Y012798D01*
X029200Y021521D01*
X028981Y021740D01*
X028680Y021740D01*
X028680Y020633D01*
X028660Y020583D01*
X028660Y019357D01*
X028680Y019307D01*
X028680Y018133D01*
X028660Y018083D01*
X028660Y007700D01*
X035981Y007700D01*
X036200Y007919D01*
X036200Y008322D01*
X036121Y008132D01*
X035938Y007949D01*
X035699Y007850D01*
X035441Y007850D01*
X035202Y007949D01*
X035019Y008132D01*
X034920Y008371D01*
X034920Y008629D01*
X035019Y008868D01*
X035202Y009051D01*
X035441Y009150D01*
X035699Y009150D01*
X035938Y009051D01*
X036121Y008868D01*
X036200Y008678D01*
X036200Y011315D01*
X036273Y011492D01*
X036408Y011627D01*
X036585Y011700D01*
X038481Y011700D01*
X038988Y012207D01*
X038920Y012371D01*
X038920Y012629D01*
X039019Y012868D01*
X039202Y013051D01*
X039441Y013150D01*
X039699Y013150D01*
X039938Y013051D01*
X040121Y012868D01*
X040220Y012629D01*
X040220Y012371D01*
X040160Y012226D01*
X040160Y012216D01*
X040160Y012125D01*
X040158Y012120D01*
X040158Y012116D01*
X040122Y012032D01*
X040087Y011948D01*
X040084Y011945D01*
X040082Y011941D01*
X040016Y011877D01*
X039087Y010948D01*
X039087Y010948D01*
X038952Y010813D01*
X038775Y010740D01*
X037160Y010740D01*
X037160Y010118D01*
X037239Y010308D01*
X037422Y010491D01*
X037661Y010590D01*
X037919Y010590D01*
X038158Y010491D01*
X038341Y010308D01*
X038440Y010069D01*
X038440Y009811D01*
X038341Y009572D01*
X038158Y009389D01*
X037919Y009290D01*
X037661Y009290D01*
X037422Y009389D01*
X037239Y009572D01*
X037160Y009762D01*
X037160Y007625D01*
X037087Y007448D01*
X036587Y006948D01*
X036452Y006813D01*
X036275Y006740D01*
X028085Y006740D01*
X027908Y006813D01*
X027773Y006948D01*
X027700Y007125D01*
X027700Y010240D01*
X024692Y010240D01*
X024644Y010220D01*
X024746Y010178D01*
X024898Y010026D01*
X024980Y009827D01*
X024980Y009613D01*
X024898Y009414D01*
X024746Y009262D01*
X024547Y009180D01*
X023813Y009180D01*
X023614Y009262D01*
X023462Y009414D01*
X023380Y009613D01*
X023380Y009827D01*
X023462Y010026D01*
X023614Y010178D01*
X023716Y010220D01*
X023614Y010262D01*
X023462Y010414D01*
X023380Y010613D01*
X023380Y010827D01*
X023462Y011026D01*
X023614Y011178D01*
X023716Y011220D01*
X023614Y011262D01*
X023462Y011414D01*
X023380Y011613D01*
X023380Y011827D01*
X023462Y012026D01*
X023614Y012178D01*
X023799Y012255D01*
X023736Y012275D01*
X023668Y012309D01*
X023607Y012354D01*
X023554Y012407D01*
X023509Y012468D01*
X023475Y012536D01*
X023452Y012608D01*
X023440Y012682D01*
X023440Y012720D01*
X024180Y012720D01*
X024180Y012720D01*
X024180Y013200D01*
X024478Y013200D01*
X024552Y013188D01*
X024624Y013165D01*
X024692Y013131D01*
X024753Y013086D01*
X024806Y013033D01*
X024851Y012972D01*
X024885Y012904D01*
X024908Y012832D01*
X024920Y012758D01*
X024920Y012720D01*
X024180Y012720D01*
X024180Y012720D01*
X024180Y012720D01*
X024180Y013200D01*
X023882Y013200D01*
X023808Y013188D01*
X023736Y013165D01*
X023668Y013131D01*
X023607Y013086D01*
X023554Y013033D01*
X023509Y012972D01*
X023475Y012904D01*
X023452Y012832D01*
X023440Y012758D01*
X023440Y012720D01*
X024180Y012720D01*
X024920Y012720D01*
X024920Y012682D01*
X024908Y012608D01*
X024885Y012536D01*
X024851Y012468D01*
X024806Y012407D01*
X024753Y012354D01*
X024692Y012309D01*
X024624Y012275D01*
X024561Y012255D01*
X024746Y012178D01*
X024898Y012026D01*
X024980Y011827D01*
X024980Y011613D01*
X024898Y011414D01*
X024746Y011262D01*
X024644Y011220D01*
X024692Y011200D01*
X027700Y011200D01*
X027700Y017909D01*
X027636Y017909D01*
X027533Y017951D01*
X027454Y018030D01*
X027412Y018133D01*
X027412Y019307D01*
X027454Y019410D01*
X027533Y019489D01*
X027636Y019531D01*
X027700Y019531D01*
X027700Y020409D01*
X027636Y020409D01*
X027533Y020451D01*
X027454Y020530D01*
X027412Y020633D01*
X027412Y021740D01*
X027227Y021740D01*
X027179Y021731D01*
X027132Y021740D01*
X027085Y021740D01*
X027040Y021759D01*
X026992Y021768D01*
X026952Y021795D01*
X026948Y021796D01*
X026948Y020633D01*
X026906Y020530D01*
X026827Y020451D01*
X026724Y020409D01*
X025904Y020409D01*
X025801Y020451D01*
X025722Y020530D01*
X025680Y020633D01*
X025680Y020740D01*
X024585Y020740D01*
X024408Y020813D01*
X024273Y020948D01*
X024200Y021125D01*
X024200Y025328D01*
X023947Y025075D01*
X023680Y025075D01*
X023680Y025720D01*
X023680Y025720D01*
X023680Y025720D01*
X023035Y025720D01*
X023035Y025987D01*
X023413Y026365D01*
X023680Y026365D01*
X023680Y025720D01*
X023680Y025075D01*
X023413Y025075D01*
X023035Y025453D01*
X023035Y025720D01*
X023680Y025720D01*
X023680Y025763D02*
X023680Y025763D01*
X023680Y026001D02*
X023680Y026001D01*
X023680Y026240D02*
X023680Y026240D01*
X024073Y026240D02*
X024200Y026240D01*
X024200Y026478D02*
X002960Y026478D01*
X002960Y026240D02*
X021203Y026240D01*
X021388Y026425D02*
X020975Y026012D01*
X020975Y025428D01*
X021388Y025015D01*
X021972Y025015D01*
X022385Y025428D01*
X022385Y026012D01*
X021972Y026425D01*
X021388Y026425D01*
X020975Y026001D02*
X002960Y026001D01*
X002960Y025763D02*
X020975Y025763D01*
X020975Y025524D02*
X002960Y025524D01*
X002960Y025286D02*
X021117Y025286D01*
X021356Y025047D02*
X002960Y025047D01*
X002960Y024809D02*
X024200Y024809D01*
X024200Y025047D02*
X022004Y025047D01*
X022243Y025286D02*
X023202Y025286D01*
X023035Y025524D02*
X022385Y025524D01*
X022385Y025763D02*
X023035Y025763D01*
X023049Y026001D02*
X022385Y026001D01*
X022157Y026240D02*
X023287Y026240D01*
X023680Y025524D02*
X023680Y025524D01*
X023680Y025286D02*
X023680Y025286D01*
X024158Y025286D02*
X024200Y025286D01*
X024200Y024570D02*
X002960Y024570D01*
X002960Y024332D02*
X024200Y024332D01*
X024200Y024093D02*
X002960Y024093D01*
X002960Y023855D02*
X024200Y023855D01*
X024200Y023616D02*
X002960Y023616D01*
X002960Y023378D02*
X024200Y023378D01*
X024200Y023139D02*
X002960Y023139D01*
X002960Y022901D02*
X024200Y022901D01*
X024200Y022662D02*
X002960Y022662D01*
X002960Y022424D02*
X024200Y022424D01*
X024200Y022185D02*
X002960Y022185D01*
X002960Y021947D02*
X024200Y021947D01*
X024200Y021708D02*
X002960Y021708D01*
X002960Y021470D02*
X024200Y021470D01*
X024200Y021231D02*
X002960Y021231D01*
X002960Y020993D02*
X024255Y020993D01*
X024551Y020754D02*
X002960Y020754D01*
X002960Y020516D02*
X025737Y020516D01*
X026891Y020516D02*
X027469Y020516D01*
X027412Y020754D02*
X026948Y020754D01*
X026948Y020993D02*
X027412Y020993D01*
X027412Y021231D02*
X026948Y021231D01*
X026948Y021470D02*
X027412Y021470D01*
X027412Y021708D02*
X026948Y021708D01*
X026626Y022185D02*
X025160Y022185D01*
X025160Y021947D02*
X025759Y021947D01*
X025680Y021708D02*
X025160Y021708D01*
X025160Y022424D02*
X026467Y022424D01*
X026308Y022662D02*
X025160Y022662D01*
X025160Y022901D02*
X026149Y022901D01*
X025680Y023139D02*
X025160Y023139D01*
X025160Y023378D02*
X025680Y023378D01*
X025680Y023616D02*
X025160Y023616D01*
X025160Y023855D02*
X025680Y023855D01*
X025680Y024093D02*
X025160Y024093D01*
X025160Y024332D02*
X025690Y024332D01*
X025160Y024570D02*
X027151Y024570D01*
X026938Y024332D02*
X027390Y024332D01*
X027412Y024093D02*
X026948Y024093D01*
X026948Y023855D02*
X027412Y023855D01*
X027412Y023616D02*
X026948Y023616D01*
X026985Y023378D02*
X027412Y023378D01*
X027412Y023139D02*
X027144Y023139D01*
X027303Y022901D02*
X029321Y022901D01*
X029367Y022662D02*
X029559Y022662D01*
X029655Y022424D02*
X029798Y022424D01*
X029894Y022185D02*
X030036Y022185D01*
X030106Y021947D02*
X030200Y021947D01*
X030200Y021708D02*
X030160Y021708D01*
X030160Y021470D02*
X030200Y021470D01*
X030200Y021231D02*
X030160Y021231D01*
X030160Y020993D02*
X030200Y020993D01*
X030200Y020754D02*
X030160Y020754D01*
X030160Y020516D02*
X030200Y020516D01*
X030200Y020277D02*
X030160Y020277D01*
X030160Y020039D02*
X030200Y020039D01*
X030200Y019800D02*
X030160Y019800D01*
X030160Y019562D02*
X030200Y019562D01*
X030200Y019323D02*
X030160Y019323D01*
X030160Y019085D02*
X030200Y019085D01*
X030200Y018846D02*
X030160Y018846D01*
X030160Y018608D02*
X030200Y018608D01*
X030200Y018369D02*
X030160Y018369D01*
X030160Y018131D02*
X030200Y018131D01*
X030200Y017892D02*
X030160Y017892D01*
X030160Y017654D02*
X030200Y017654D01*
X030200Y017415D02*
X030160Y017415D01*
X030160Y017177D02*
X030200Y017177D01*
X030200Y016938D02*
X030160Y016938D01*
X030160Y016700D02*
X030200Y016700D01*
X030200Y016461D02*
X030160Y016461D01*
X030160Y016223D02*
X030200Y016223D01*
X030200Y015984D02*
X030160Y015984D01*
X030160Y015746D02*
X030200Y015746D01*
X030200Y015507D02*
X030160Y015507D01*
X030160Y015269D02*
X030200Y015269D01*
X030160Y015030D02*
X030239Y015030D01*
X030160Y014792D02*
X030430Y014792D01*
X030668Y014553D02*
X030160Y014553D01*
X030160Y014315D02*
X030907Y014315D01*
X031145Y014076D02*
X030160Y014076D01*
X030160Y013838D02*
X031384Y013838D01*
X031622Y013599D02*
X030160Y013599D01*
X030160Y013361D02*
X031861Y013361D01*
X031767Y013122D02*
X032099Y013122D01*
X031938Y013051D02*
X031699Y013150D01*
X031441Y013150D01*
X031202Y013051D01*
X031019Y012868D01*
X030920Y012629D01*
X030920Y012371D01*
X031019Y012132D01*
X031202Y011949D01*
X031441Y011850D01*
X031699Y011850D01*
X031938Y011949D01*
X032121Y012132D01*
X032220Y012371D01*
X032220Y012629D01*
X032121Y012868D01*
X031938Y013051D01*
X032106Y012884D02*
X032338Y012884D01*
X032213Y012645D02*
X032576Y012645D01*
X032700Y012407D02*
X032220Y012407D01*
X032136Y012168D02*
X032700Y012168D01*
X032700Y011930D02*
X031891Y011930D01*
X031249Y011930D02*
X030111Y011930D01*
X030356Y012168D02*
X031004Y012168D01*
X030920Y012407D02*
X030440Y012407D01*
X030433Y012645D02*
X030927Y012645D01*
X031034Y012884D02*
X030326Y012884D01*
X030160Y013122D02*
X031373Y013122D01*
X032503Y014076D02*
X033143Y014076D01*
X033140Y014069D02*
X033140Y013811D01*
X033239Y013572D01*
X033422Y013389D01*
X033661Y013290D01*
X033919Y013290D01*
X034158Y013389D01*
X034341Y013572D01*
X034440Y013811D01*
X034440Y014069D01*
X034341Y014308D01*
X034158Y014491D01*
X033919Y014590D01*
X033661Y014590D01*
X033422Y014491D01*
X033239Y014308D01*
X033140Y014069D01*
X033140Y013838D02*
X032741Y013838D01*
X032980Y013599D02*
X033228Y013599D01*
X033218Y013361D02*
X033490Y013361D01*
X033457Y013122D02*
X037593Y013122D01*
X037661Y013150D02*
X037422Y013051D01*
X037239Y012868D01*
X037140Y012629D01*
X037140Y012371D01*
X037239Y012132D01*
X037422Y011949D01*
X037661Y011850D01*
X037919Y011850D01*
X038158Y011949D01*
X038341Y012132D01*
X038440Y012371D01*
X038440Y012629D01*
X038341Y012868D01*
X038158Y013051D01*
X037919Y013150D01*
X037661Y013150D01*
X037987Y013122D02*
X039373Y013122D01*
X039767Y013122D02*
X042400Y013122D01*
X042400Y012884D02*
X040106Y012884D01*
X040213Y012645D02*
X042400Y012645D01*
X042400Y012407D02*
X040220Y012407D01*
X040160Y012168D02*
X042400Y012168D01*
X042400Y011930D02*
X040070Y011930D01*
X039830Y011691D02*
X042400Y011691D01*
X042400Y011453D02*
X039591Y011453D01*
X039353Y011214D02*
X042400Y011214D01*
X042400Y010976D02*
X039114Y010976D01*
X039220Y010499D02*
X038140Y010499D01*
X038361Y010260D02*
X038999Y010260D01*
X039019Y010308D02*
X038920Y010069D01*
X038920Y009811D01*
X039019Y009572D01*
X039202Y009389D01*
X039441Y009290D01*
X039699Y009290D01*
X039938Y009389D01*
X040121Y009572D01*
X040220Y009811D01*
X040220Y010069D01*
X040121Y010308D01*
X039938Y010491D01*
X039699Y010590D01*
X039441Y010590D01*
X039202Y010491D01*
X039019Y010308D01*
X038920Y010022D02*
X038440Y010022D01*
X038429Y009783D02*
X038931Y009783D01*
X039046Y009545D02*
X038314Y009545D01*
X037958Y009306D02*
X039402Y009306D01*
X039738Y009306D02*
X042400Y009306D01*
X042400Y009068D02*
X037160Y009068D01*
X037160Y009306D02*
X037622Y009306D01*
X037266Y009545D02*
X037160Y009545D01*
X037160Y010260D02*
X037219Y010260D01*
X037160Y010499D02*
X037440Y010499D01*
X037160Y010737D02*
X042400Y010737D01*
X042400Y010499D02*
X039920Y010499D01*
X040141Y010260D02*
X042400Y010260D01*
X042400Y010022D02*
X040220Y010022D01*
X040209Y009783D02*
X042400Y009783D01*
X042400Y009545D02*
X040094Y009545D01*
X042400Y008829D02*
X037160Y008829D01*
X037160Y008591D02*
X042400Y008591D01*
X042400Y008352D02*
X037160Y008352D01*
X037160Y008114D02*
X042400Y008114D01*
X042400Y007875D02*
X037160Y007875D01*
X037160Y007637D02*
X042400Y007637D01*
X042400Y007398D02*
X037037Y007398D01*
X036798Y007160D02*
X042400Y007160D01*
X042400Y006921D02*
X036560Y006921D01*
X035985Y006444D02*
X042400Y006444D01*
X042400Y006206D02*
X036164Y006206D01*
X036121Y006308D02*
X036220Y006069D01*
X036220Y005811D01*
X036121Y005572D01*
X035938Y005389D01*
X035699Y005290D01*
X035441Y005290D01*
X035202Y005389D01*
X035019Y005572D01*
X034920Y005811D01*
X034920Y006069D01*
X035019Y006308D01*
X035202Y006491D01*
X035441Y006590D01*
X035699Y006590D01*
X035938Y006491D01*
X036121Y006308D01*
X036220Y005967D02*
X042400Y005967D01*
X042400Y005729D02*
X036186Y005729D01*
X036039Y005490D02*
X042400Y005490D01*
X042400Y005252D02*
X002960Y005252D01*
X002960Y005490D02*
X033321Y005490D01*
X033239Y005572D02*
X033422Y005389D01*
X033661Y005290D01*
X033919Y005290D01*
X034158Y005389D01*
X034341Y005572D01*
X034440Y005811D01*
X034440Y006069D01*
X034341Y006308D01*
X034158Y006491D01*
X033919Y006590D01*
X033661Y006590D01*
X033422Y006491D01*
X033239Y006308D01*
X033140Y006069D01*
X033140Y005811D01*
X033239Y005572D01*
X033174Y005729D02*
X002960Y005729D01*
X002960Y005967D02*
X033140Y005967D01*
X033196Y006206D02*
X002960Y006206D01*
X002960Y006444D02*
X033375Y006444D01*
X034205Y006444D02*
X035155Y006444D01*
X034976Y006206D02*
X034384Y006206D01*
X034440Y005967D02*
X034920Y005967D01*
X034954Y005729D02*
X034406Y005729D01*
X034259Y005490D02*
X035101Y005490D01*
X035380Y007875D02*
X033980Y007875D01*
X033600Y007875D02*
X028660Y007875D01*
X028660Y008114D02*
X033257Y008114D01*
X033148Y008352D02*
X028660Y008352D01*
X028660Y008591D02*
X033131Y008591D01*
X032892Y008829D02*
X028660Y008829D01*
X028660Y009068D02*
X032724Y009068D01*
X032700Y009306D02*
X031738Y009306D01*
X031699Y009290D02*
X031938Y009389D01*
X032121Y009572D01*
X032220Y009811D01*
X032220Y010069D01*
X032121Y010308D01*
X031938Y010491D01*
X031699Y010590D01*
X031441Y010590D01*
X031202Y010491D01*
X031019Y010308D01*
X030920Y010069D01*
X030920Y009811D01*
X031019Y009572D01*
X031202Y009389D01*
X031441Y009290D01*
X031699Y009290D01*
X031402Y009306D02*
X029958Y009306D01*
X029919Y009290D02*
X030158Y009389D01*
X030341Y009572D01*
X030440Y009811D01*
X030440Y010069D01*
X030341Y010308D01*
X030158Y010491D01*
X029919Y010590D01*
X029661Y010590D01*
X029422Y010491D01*
X029239Y010308D01*
X029140Y010069D01*
X029140Y009811D01*
X029239Y009572D01*
X029422Y009389D01*
X029661Y009290D01*
X029919Y009290D01*
X029622Y009306D02*
X028660Y009306D01*
X028660Y009545D02*
X029266Y009545D01*
X029151Y009783D02*
X028660Y009783D01*
X028660Y010022D02*
X029140Y010022D01*
X029219Y010260D02*
X028660Y010260D01*
X028660Y010499D02*
X029440Y010499D01*
X030140Y010499D02*
X031220Y010499D01*
X030999Y010260D02*
X030361Y010260D01*
X030440Y010022D02*
X030920Y010022D01*
X030931Y009783D02*
X030429Y009783D01*
X030314Y009545D02*
X031046Y009545D01*
X032094Y009545D02*
X032700Y009545D01*
X032700Y009783D02*
X032209Y009783D01*
X032220Y010022D02*
X032700Y010022D01*
X032700Y010260D02*
X032141Y010260D01*
X031920Y010499D02*
X032700Y010499D01*
X032700Y010737D02*
X028660Y010737D01*
X028660Y010976D02*
X032700Y010976D01*
X032700Y011214D02*
X028660Y011214D01*
X028660Y011453D02*
X032700Y011453D01*
X032700Y011691D02*
X028660Y011691D01*
X028660Y011930D02*
X029469Y011930D01*
X029224Y012168D02*
X028660Y012168D01*
X028660Y012407D02*
X029140Y012407D01*
X029147Y012645D02*
X028660Y012645D01*
X028660Y012884D02*
X029200Y012884D01*
X029200Y013122D02*
X028660Y013122D01*
X028660Y013361D02*
X029200Y013361D01*
X029200Y013599D02*
X028660Y013599D01*
X028660Y013838D02*
X029200Y013838D01*
X029200Y014076D02*
X028660Y014076D01*
X028660Y014315D02*
X029200Y014315D01*
X029200Y014553D02*
X028660Y014553D01*
X028660Y014792D02*
X029200Y014792D01*
X029200Y015030D02*
X028660Y015030D01*
X028660Y015269D02*
X029200Y015269D01*
X029200Y015507D02*
X028660Y015507D01*
X028660Y015746D02*
X029200Y015746D01*
X029200Y015984D02*
X028660Y015984D01*
X028660Y016223D02*
X029200Y016223D01*
X029200Y016461D02*
X028660Y016461D01*
X028660Y016700D02*
X029200Y016700D01*
X029200Y016938D02*
X028660Y016938D01*
X028660Y017177D02*
X029200Y017177D01*
X029200Y017415D02*
X028660Y017415D01*
X028660Y017654D02*
X029200Y017654D01*
X029200Y017892D02*
X028660Y017892D01*
X028680Y018131D02*
X029200Y018131D01*
X029200Y018369D02*
X028680Y018369D01*
X028680Y018608D02*
X029200Y018608D01*
X029200Y018846D02*
X028680Y018846D01*
X028680Y019085D02*
X029200Y019085D01*
X029200Y019323D02*
X028674Y019323D01*
X028660Y019562D02*
X029200Y019562D01*
X029200Y019800D02*
X028660Y019800D01*
X028660Y020039D02*
X029200Y020039D01*
X029200Y020277D02*
X028660Y020277D01*
X028660Y020516D02*
X029200Y020516D01*
X029200Y020754D02*
X028680Y020754D01*
X028680Y020993D02*
X029200Y020993D01*
X029200Y021231D02*
X028680Y021231D01*
X028680Y021470D02*
X029200Y021470D01*
X029013Y021708D02*
X028680Y021708D01*
X028680Y023139D02*
X029082Y023139D01*
X029724Y023855D02*
X030367Y023855D01*
X030128Y024093D02*
X029486Y024093D01*
X029890Y024332D02*
X028670Y024332D01*
X028509Y024570D02*
X029651Y024570D01*
X029413Y024809D02*
X028270Y024809D01*
X028032Y025047D02*
X029174Y025047D01*
X028936Y025286D02*
X027793Y025286D01*
X027412Y025763D02*
X027316Y025763D01*
X027412Y026001D02*
X027078Y026001D01*
X026948Y026240D02*
X027412Y026240D01*
X027412Y026478D02*
X026948Y026478D01*
X026948Y026717D02*
X027412Y026717D01*
X027499Y026955D02*
X026861Y026955D01*
X027700Y027194D02*
X025832Y027194D01*
X025767Y026955D02*
X025594Y026955D01*
X025680Y026717D02*
X025355Y026717D01*
X025160Y026478D02*
X025680Y026478D01*
X025680Y026240D02*
X025160Y026240D01*
X025160Y026001D02*
X025680Y026001D01*
X025680Y025763D02*
X025160Y025763D01*
X025160Y025524D02*
X025728Y025524D01*
X025160Y025286D02*
X026436Y025286D01*
X026674Y025047D02*
X025160Y025047D01*
X025160Y024809D02*
X026913Y024809D01*
X028632Y025524D02*
X028697Y025524D01*
X029339Y026240D02*
X031482Y026240D01*
X031243Y026478D02*
X029101Y026478D01*
X028862Y026717D02*
X031005Y026717D01*
X030766Y026955D02*
X028660Y026955D01*
X028660Y027194D02*
X030528Y027194D01*
X030289Y027432D02*
X028660Y027432D01*
X028660Y027671D02*
X030051Y027671D01*
X029812Y027909D02*
X028621Y027909D01*
X028402Y028148D02*
X029574Y028148D01*
X029335Y028386D02*
X002960Y028386D01*
X002960Y028148D02*
X025458Y028148D01*
X025190Y027909D02*
X002960Y027909D01*
X002960Y027671D02*
X024952Y027671D01*
X024713Y027432D02*
X002960Y027432D01*
X002960Y027194D02*
X024475Y027194D01*
X024258Y026955D02*
X002960Y026955D01*
X002960Y026717D02*
X024200Y026717D01*
X024396Y029487D02*
X024293Y029530D01*
X024214Y029609D01*
X024172Y029712D01*
X024172Y030925D01*
X024214Y031028D01*
X024293Y031107D01*
X024396Y031150D01*
X024524Y031150D01*
X024524Y031889D01*
X024396Y031889D01*
X024293Y031931D01*
X024214Y032010D01*
X024172Y032113D01*
X024172Y033327D01*
X024214Y033430D01*
X024293Y033509D01*
X024396Y033551D01*
X025452Y033551D01*
X025555Y033509D01*
X025634Y033430D01*
X025677Y033327D01*
X025677Y032113D01*
X025634Y032010D01*
X025555Y031931D01*
X025452Y031889D01*
X025324Y031889D01*
X025324Y031150D01*
X025452Y031150D01*
X025555Y031107D01*
X025634Y031028D01*
X025677Y030925D01*
X025677Y030700D01*
X028275Y030700D01*
X028452Y030627D01*
X028587Y030492D01*
X035952Y023127D01*
X036087Y022992D01*
X036160Y022815D01*
X036160Y016798D01*
X036166Y016781D01*
X036164Y016764D01*
X036220Y016629D01*
X036220Y016371D01*
X036121Y016132D01*
X035938Y015949D01*
X035699Y015850D01*
X035441Y015850D01*
X035202Y015949D01*
X035019Y016132D01*
X034920Y016371D01*
X034920Y016629D01*
X035019Y016868D01*
X035200Y017049D01*
X035200Y022521D01*
X027981Y029740D01*
X025677Y029740D01*
X025677Y029712D01*
X025634Y029609D01*
X025555Y029530D01*
X025452Y029487D01*
X024396Y029487D01*
X024244Y029579D02*
X021116Y029579D01*
X021146Y029609D02*
X021188Y029712D01*
X021188Y030925D01*
X021146Y031028D01*
X021067Y031107D01*
X020964Y031150D01*
X019908Y031150D01*
X019805Y031107D01*
X019726Y031028D01*
X019683Y030925D01*
X019683Y029712D01*
X019726Y029609D01*
X019805Y029530D01*
X019908Y029487D01*
X020964Y029487D01*
X021067Y029530D01*
X021146Y029609D01*
X021188Y029817D02*
X024172Y029817D01*
X024172Y030056D02*
X021188Y030056D01*
X021188Y030294D02*
X022414Y030294D01*
X022295Y030344D02*
X022545Y030240D01*
X022815Y030240D01*
X023065Y030344D01*
X023256Y030535D01*
X023360Y030785D01*
X023360Y031055D01*
X023256Y031305D01*
X023065Y031496D01*
X022815Y031600D01*
X022545Y031600D01*
X022295Y031496D01*
X022104Y031305D01*
X022000Y031055D01*
X022000Y030785D01*
X022104Y030535D01*
X022295Y030344D01*
X022106Y030533D02*
X021188Y030533D01*
X021188Y030771D02*
X022006Y030771D01*
X022000Y031010D02*
X021153Y031010D01*
X020964Y031889D02*
X021067Y031931D01*
X021146Y032010D01*
X021188Y032113D01*
X021188Y033327D01*
X021146Y033430D01*
X021067Y033509D01*
X020964Y033551D01*
X019908Y033551D01*
X019805Y033509D01*
X019726Y033430D01*
X019683Y033327D01*
X019683Y032113D01*
X019726Y032010D01*
X019805Y031931D01*
X019908Y031889D01*
X020964Y031889D01*
X021099Y031964D02*
X024261Y031964D01*
X024172Y032202D02*
X023124Y032202D01*
X023065Y032144D02*
X023256Y032335D01*
X023360Y032585D01*
X023360Y032855D01*
X023256Y033105D01*
X023065Y033296D01*
X022815Y033400D01*
X022545Y033400D01*
X022295Y033296D01*
X022104Y033105D01*
X022000Y032855D01*
X022000Y032585D01*
X022104Y032335D01*
X022295Y032144D01*
X022545Y032040D01*
X022815Y032040D01*
X023065Y032144D01*
X023300Y032441D02*
X024172Y032441D01*
X024172Y032679D02*
X023360Y032679D01*
X023334Y032918D02*
X024172Y032918D01*
X024172Y033156D02*
X023206Y033156D01*
X022828Y033395D02*
X024200Y033395D01*
X024924Y032720D02*
X024924Y030318D01*
X025677Y030771D02*
X042400Y030771D01*
X042400Y030533D02*
X028546Y030533D01*
X028785Y030294D02*
X042400Y030294D01*
X042400Y030056D02*
X029023Y030056D01*
X029262Y029817D02*
X042400Y029817D01*
X042400Y029579D02*
X029500Y029579D01*
X029739Y029340D02*
X042400Y029340D01*
X042400Y029102D02*
X029977Y029102D01*
X030216Y028863D02*
X042400Y028863D01*
X042400Y028625D02*
X030454Y028625D01*
X030693Y028386D02*
X042400Y028386D01*
X042400Y028148D02*
X030931Y028148D01*
X031170Y027909D02*
X042400Y027909D01*
X042400Y027671D02*
X031408Y027671D01*
X031647Y027432D02*
X042400Y027432D01*
X042400Y027194D02*
X031885Y027194D01*
X032124Y026955D02*
X042400Y026955D01*
X042400Y026717D02*
X032362Y026717D01*
X032601Y026478D02*
X042400Y026478D01*
X042400Y026240D02*
X032839Y026240D01*
X033078Y026001D02*
X042400Y026001D01*
X042400Y025763D02*
X033316Y025763D01*
X033555Y025524D02*
X042400Y025524D01*
X042400Y025286D02*
X033793Y025286D01*
X034032Y025047D02*
X042400Y025047D01*
X042400Y024809D02*
X034270Y024809D01*
X034509Y024570D02*
X042400Y024570D01*
X042400Y024332D02*
X034747Y024332D01*
X034986Y024093D02*
X042400Y024093D01*
X042400Y023855D02*
X035224Y023855D01*
X035463Y023616D02*
X042400Y023616D01*
X042400Y023378D02*
X035701Y023378D01*
X035940Y023139D02*
X042400Y023139D01*
X042400Y022901D02*
X036125Y022901D01*
X036160Y022662D02*
X042400Y022662D01*
X042400Y022424D02*
X036160Y022424D01*
X036160Y022185D02*
X042400Y022185D01*
X042400Y021947D02*
X036160Y021947D01*
X036160Y021708D02*
X042400Y021708D01*
X042400Y021470D02*
X036160Y021470D01*
X036160Y021231D02*
X042400Y021231D01*
X042400Y020993D02*
X036160Y020993D01*
X036160Y020754D02*
X042400Y020754D01*
X042400Y020516D02*
X036160Y020516D01*
X036160Y020277D02*
X042400Y020277D01*
X042400Y020039D02*
X036160Y020039D01*
X036160Y019800D02*
X042400Y019800D01*
X042400Y019562D02*
X036160Y019562D01*
X036160Y019323D02*
X042400Y019323D01*
X042400Y019085D02*
X036160Y019085D01*
X036160Y018846D02*
X042400Y018846D01*
X042400Y018608D02*
X036160Y018608D01*
X036160Y018369D02*
X042400Y018369D01*
X042400Y018131D02*
X036160Y018131D01*
X036160Y017892D02*
X042400Y017892D01*
X042400Y017654D02*
X036160Y017654D01*
X036160Y017415D02*
X042400Y017415D01*
X042400Y017177D02*
X036160Y017177D01*
X036160Y016938D02*
X042400Y016938D01*
X042400Y016700D02*
X036191Y016700D01*
X036220Y016461D02*
X042400Y016461D01*
X042400Y016223D02*
X036159Y016223D01*
X035973Y015984D02*
X042400Y015984D01*
X042400Y015746D02*
X031160Y015746D01*
X031160Y015984D02*
X033387Y015984D01*
X033201Y016223D02*
X031160Y016223D01*
X031160Y016461D02*
X031268Y016461D01*
X031200Y016700D02*
X031160Y016700D01*
X031160Y016938D02*
X031200Y016938D01*
X031200Y017177D02*
X031160Y017177D01*
X031160Y017415D02*
X031200Y017415D01*
X031200Y017654D02*
X031160Y017654D01*
X031160Y017892D02*
X031200Y017892D01*
X031200Y018131D02*
X031160Y018131D01*
X031160Y018369D02*
X031200Y018369D01*
X031200Y018608D02*
X031160Y018608D01*
X031160Y018846D02*
X031200Y018846D01*
X031200Y019085D02*
X031160Y019085D01*
X031160Y019323D02*
X031200Y019323D01*
X031200Y019562D02*
X031160Y019562D01*
X031160Y019800D02*
X031200Y019800D01*
X031200Y020039D02*
X031160Y020039D01*
X031160Y020277D02*
X031200Y020277D01*
X031200Y020516D02*
X031160Y020516D01*
X031160Y020754D02*
X031200Y020754D01*
X031200Y020993D02*
X031160Y020993D01*
X031160Y021231D02*
X031200Y021231D01*
X031200Y021470D02*
X031160Y021470D01*
X031160Y021708D02*
X031200Y021708D01*
X031200Y021947D02*
X031160Y021947D01*
X031160Y022185D02*
X031200Y022185D01*
X031200Y022424D02*
X031115Y022424D01*
X031200Y022662D02*
X030917Y022662D01*
X030678Y022901D02*
X031200Y022901D01*
X031082Y023139D02*
X030440Y023139D01*
X030201Y023378D02*
X030844Y023378D01*
X030605Y023616D02*
X029963Y023616D01*
X031009Y024570D02*
X033151Y024570D01*
X032913Y024809D02*
X030770Y024809D01*
X030532Y025047D02*
X032674Y025047D01*
X032436Y025286D02*
X030293Y025286D01*
X030055Y025524D02*
X032197Y025524D01*
X031959Y025763D02*
X029816Y025763D01*
X029578Y026001D02*
X031720Y026001D01*
X031247Y024332D02*
X033390Y024332D01*
X033628Y024093D02*
X031486Y024093D01*
X031724Y023855D02*
X033867Y023855D01*
X034105Y023616D02*
X031963Y023616D01*
X032134Y023378D02*
X034344Y023378D01*
X034582Y023139D02*
X032160Y023139D01*
X032160Y022901D02*
X034821Y022901D01*
X035059Y022662D02*
X032160Y022662D01*
X032160Y022424D02*
X035200Y022424D01*
X035200Y022185D02*
X032160Y022185D01*
X032160Y021947D02*
X035200Y021947D01*
X035200Y021708D02*
X032160Y021708D01*
X032160Y021470D02*
X035200Y021470D01*
X035200Y021231D02*
X032160Y021231D01*
X032160Y020993D02*
X035200Y020993D01*
X035200Y020754D02*
X032160Y020754D01*
X032160Y020516D02*
X035200Y020516D01*
X035200Y020277D02*
X032160Y020277D01*
X032160Y020039D02*
X035200Y020039D01*
X035200Y019800D02*
X032160Y019800D01*
X032160Y019562D02*
X035200Y019562D01*
X035200Y019323D02*
X032160Y019323D01*
X032160Y019085D02*
X035200Y019085D01*
X035200Y018846D02*
X032160Y018846D01*
X032160Y018608D02*
X035200Y018608D01*
X035200Y018369D02*
X032160Y018369D01*
X032160Y018131D02*
X035200Y018131D01*
X035200Y017892D02*
X032160Y017892D01*
X032160Y017654D02*
X035200Y017654D01*
X035200Y017415D02*
X032160Y017415D01*
X033832Y017177D02*
X035200Y017177D01*
X035089Y016938D02*
X034271Y016938D01*
X034411Y016700D02*
X034949Y016700D01*
X034920Y016461D02*
X034440Y016461D01*
X034379Y016223D02*
X034981Y016223D01*
X035167Y015984D02*
X034193Y015984D01*
X034009Y014553D02*
X035351Y014553D01*
X035441Y014590D02*
X035202Y014491D01*
X035019Y014308D01*
X034920Y014069D01*
X034920Y013811D01*
X035019Y013572D01*
X035202Y013389D01*
X035441Y013290D01*
X035699Y013290D01*
X035938Y013389D01*
X036121Y013572D01*
X036220Y013811D01*
X036220Y014069D01*
X036121Y014308D01*
X035938Y014491D01*
X035699Y014590D01*
X035441Y014590D01*
X035789Y014553D02*
X042400Y014553D01*
X042400Y014315D02*
X036115Y014315D01*
X036217Y014076D02*
X042400Y014076D01*
X042400Y013838D02*
X036220Y013838D01*
X036132Y013599D02*
X042400Y013599D01*
X042400Y013361D02*
X035870Y013361D01*
X035270Y013361D02*
X034090Y013361D01*
X034352Y013599D02*
X035008Y013599D01*
X034920Y013838D02*
X034440Y013838D01*
X034437Y014076D02*
X034923Y014076D01*
X035025Y014315D02*
X034335Y014315D01*
X033571Y014553D02*
X032026Y014553D01*
X032264Y014315D02*
X033245Y014315D01*
X033632Y012884D02*
X037254Y012884D01*
X037147Y012645D02*
X033660Y012645D01*
X033660Y012407D02*
X037140Y012407D01*
X037224Y012168D02*
X033660Y012168D01*
X033660Y011930D02*
X037469Y011930D01*
X038111Y011930D02*
X038711Y011930D01*
X038949Y012168D02*
X038356Y012168D01*
X038440Y012407D02*
X038920Y012407D01*
X038927Y012645D02*
X038433Y012645D01*
X038326Y012884D02*
X039034Y012884D01*
X036563Y011691D02*
X033660Y011691D01*
X033660Y011453D02*
X036257Y011453D01*
X036200Y011214D02*
X033660Y011214D01*
X033660Y010976D02*
X036200Y010976D01*
X036200Y010737D02*
X033660Y010737D01*
X033660Y010499D02*
X036200Y010499D01*
X036200Y010260D02*
X033660Y010260D01*
X033660Y010022D02*
X036200Y010022D01*
X036200Y009783D02*
X033660Y009783D01*
X033660Y009545D02*
X036200Y009545D01*
X036200Y009306D02*
X033773Y009306D01*
X034118Y009068D02*
X035242Y009068D01*
X035003Y008829D02*
X034357Y008829D01*
X034440Y008591D02*
X034920Y008591D01*
X034928Y008352D02*
X034432Y008352D01*
X034323Y008114D02*
X035037Y008114D01*
X035760Y007875D02*
X036156Y007875D01*
X036200Y008114D02*
X036103Y008114D01*
X036137Y008829D02*
X036200Y008829D01*
X036200Y009068D02*
X035898Y009068D01*
X039665Y003991D02*
X039409Y003735D01*
X039270Y003401D01*
X039270Y003039D01*
X039409Y002705D01*
X039665Y002449D01*
X039999Y002310D01*
X040361Y002310D01*
X040695Y002449D01*
X040951Y002705D01*
X041090Y003039D01*
X041090Y003401D01*
X040951Y003735D01*
X040695Y003991D01*
X040361Y004130D01*
X039999Y004130D01*
X039665Y003991D01*
X039828Y004059D02*
X005532Y004059D01*
X005695Y003991D02*
X005361Y004130D01*
X004999Y004130D01*
X004665Y003991D01*
X004409Y003735D01*
X004270Y003401D01*
X004270Y003039D01*
X004409Y002705D01*
X004665Y002449D01*
X004999Y002310D01*
X005361Y002310D01*
X005695Y002449D01*
X005951Y002705D01*
X006090Y003039D01*
X006090Y003401D01*
X005951Y003735D01*
X005695Y003991D01*
X005866Y003821D02*
X039494Y003821D01*
X039345Y003582D02*
X006015Y003582D01*
X006090Y003344D02*
X039270Y003344D01*
X039270Y003105D02*
X006090Y003105D01*
X006018Y002867D02*
X039342Y002867D01*
X039485Y002628D02*
X005875Y002628D01*
X005553Y002390D02*
X039807Y002390D01*
X040553Y002390D02*
X041454Y002390D01*
X041692Y002628D02*
X040875Y002628D01*
X041018Y002867D02*
X041931Y002867D01*
X042169Y003105D02*
X041090Y003105D01*
X041090Y003344D02*
X042400Y003344D01*
X042400Y003336D02*
X040064Y001000D01*
X005296Y001000D01*
X002960Y003336D01*
X002960Y038104D01*
X005296Y040436D01*
X040064Y040436D01*
X042400Y038104D01*
X042400Y003336D01*
X042400Y003582D02*
X041015Y003582D01*
X040866Y003821D02*
X042400Y003821D01*
X042400Y004059D02*
X040532Y004059D01*
X042400Y004298D02*
X002960Y004298D01*
X002960Y004536D02*
X042400Y004536D01*
X042400Y004775D02*
X002960Y004775D01*
X002960Y005013D02*
X042400Y005013D01*
X042400Y006683D02*
X002960Y006683D01*
X002960Y006921D02*
X027800Y006921D01*
X027700Y007160D02*
X002960Y007160D01*
X002960Y007398D02*
X027700Y007398D01*
X027700Y007637D02*
X002960Y007637D01*
X002960Y007875D02*
X027700Y007875D01*
X027700Y008114D02*
X002960Y008114D01*
X002960Y008352D02*
X027700Y008352D01*
X027700Y008591D02*
X002960Y008591D01*
X002960Y008829D02*
X027700Y008829D01*
X027700Y009068D02*
X002960Y009068D01*
X002960Y009306D02*
X020570Y009306D01*
X020614Y009262D02*
X020813Y009180D01*
X021547Y009180D01*
X021746Y009262D01*
X021898Y009414D01*
X021980Y009613D01*
X021980Y009827D01*
X021898Y010026D01*
X021746Y010178D01*
X021644Y010220D01*
X021746Y010262D01*
X021898Y010414D01*
X021980Y010613D01*
X021980Y010827D01*
X021898Y011026D01*
X021746Y011178D01*
X021644Y011220D01*
X021746Y011262D01*
X021898Y011414D01*
X021980Y011613D01*
X021980Y011827D01*
X021898Y012026D01*
X021746Y012178D01*
X021644Y012220D01*
X021746Y012262D01*
X021898Y012414D01*
X021980Y012613D01*
X021980Y012827D01*
X021898Y013026D01*
X021746Y013178D01*
X021547Y013260D01*
X020813Y013260D01*
X020614Y013178D01*
X020462Y013026D01*
X020380Y012827D01*
X020380Y012613D01*
X020462Y012414D01*
X020614Y012262D01*
X020716Y012220D01*
X020614Y012178D01*
X020462Y012026D01*
X020380Y011827D01*
X020380Y011613D01*
X020462Y011414D01*
X020614Y011262D01*
X020716Y011220D01*
X020614Y011178D01*
X020462Y011026D01*
X020380Y010827D01*
X020380Y010613D01*
X020462Y010414D01*
X020614Y010262D01*
X020716Y010220D01*
X020614Y010178D01*
X020462Y010026D01*
X020380Y009827D01*
X020380Y009613D01*
X020462Y009414D01*
X020614Y009262D01*
X020408Y009545D02*
X002960Y009545D01*
X002960Y009783D02*
X020380Y009783D01*
X020460Y010022D02*
X002960Y010022D01*
X002960Y010260D02*
X020619Y010260D01*
X020427Y010499D02*
X002960Y010499D01*
X002960Y010737D02*
X020380Y010737D01*
X020441Y010976D02*
X002960Y010976D01*
X002960Y011214D02*
X020702Y011214D01*
X020446Y011453D02*
X002960Y011453D01*
X002960Y011691D02*
X020380Y011691D01*
X020422Y011930D02*
X002960Y011930D01*
X002960Y012168D02*
X020604Y012168D01*
X020470Y012407D02*
X002960Y012407D01*
X002960Y012645D02*
X020380Y012645D01*
X020403Y012884D02*
X002960Y012884D01*
X002960Y013122D02*
X020558Y013122D01*
X021802Y013122D02*
X023657Y013122D01*
X023468Y012884D02*
X021957Y012884D01*
X021980Y012645D02*
X023446Y012645D01*
X023555Y012407D02*
X021890Y012407D01*
X021756Y012168D02*
X023604Y012168D01*
X023422Y011930D02*
X021938Y011930D01*
X021980Y011691D02*
X023380Y011691D01*
X023446Y011453D02*
X021914Y011453D01*
X021658Y011214D02*
X023702Y011214D01*
X023441Y010976D02*
X021919Y010976D01*
X021980Y010737D02*
X023380Y010737D01*
X023427Y010499D02*
X021933Y010499D01*
X021741Y010260D02*
X023619Y010260D01*
X023460Y010022D02*
X021900Y010022D01*
X021980Y009783D02*
X023380Y009783D01*
X023408Y009545D02*
X021952Y009545D01*
X021790Y009306D02*
X023570Y009306D01*
X024790Y009306D02*
X027700Y009306D01*
X027700Y009545D02*
X024952Y009545D01*
X024980Y009783D02*
X027700Y009783D01*
X027700Y010022D02*
X024900Y010022D01*
X024658Y011214D02*
X027700Y011214D01*
X027700Y011453D02*
X024914Y011453D01*
X024980Y011691D02*
X027700Y011691D01*
X027700Y011930D02*
X024938Y011930D01*
X024756Y012168D02*
X027700Y012168D01*
X027700Y012407D02*
X024805Y012407D01*
X024914Y012645D02*
X027700Y012645D01*
X027700Y012884D02*
X024892Y012884D01*
X024703Y013122D02*
X027700Y013122D01*
X027700Y013361D02*
X002960Y013361D01*
X002960Y013599D02*
X027700Y013599D01*
X027700Y013838D02*
X002960Y013838D01*
X002960Y014076D02*
X027700Y014076D01*
X027700Y014315D02*
X002960Y014315D01*
X002960Y014553D02*
X027700Y014553D01*
X027700Y014792D02*
X002960Y014792D01*
X002960Y015030D02*
X027700Y015030D01*
X027700Y015269D02*
X002960Y015269D01*
X002960Y015507D02*
X027700Y015507D01*
X027700Y015746D02*
X002960Y015746D01*
X002960Y015984D02*
X027700Y015984D01*
X027700Y016223D02*
X002960Y016223D01*
X002960Y016461D02*
X027700Y016461D01*
X027700Y016700D02*
X002960Y016700D01*
X002960Y016938D02*
X027700Y016938D01*
X027700Y017177D02*
X002960Y017177D01*
X002960Y017415D02*
X027700Y017415D01*
X027700Y017654D02*
X002960Y017654D01*
X002960Y017892D02*
X027700Y017892D01*
X027413Y018131D02*
X026880Y018131D01*
X026873Y018104D02*
X026888Y018160D01*
X026888Y018663D01*
X026371Y018663D01*
X026371Y018777D01*
X026888Y018777D01*
X026888Y019280D01*
X026873Y019336D01*
X026844Y019387D01*
X026803Y019428D01*
X026753Y019457D01*
X026697Y019471D01*
X026371Y019471D01*
X026371Y018777D01*
X026257Y018777D01*
X026257Y019471D01*
X025931Y019471D01*
X025875Y019457D01*
X025824Y019428D01*
X025783Y019387D01*
X025755Y019336D01*
X025740Y019280D01*
X025740Y018777D01*
X026257Y018777D01*
X026257Y018663D01*
X026371Y018663D01*
X026371Y017969D01*
X026697Y017969D01*
X026753Y017983D01*
X026803Y018012D01*
X026844Y018053D01*
X026873Y018104D01*
X026888Y018369D02*
X027412Y018369D01*
X027412Y018608D02*
X026888Y018608D01*
X026888Y018846D02*
X027412Y018846D01*
X027412Y019085D02*
X026888Y019085D01*
X026877Y019323D02*
X027418Y019323D01*
X027700Y019562D02*
X002960Y019562D01*
X002960Y019800D02*
X027700Y019800D01*
X027700Y020039D02*
X002960Y020039D01*
X002960Y020277D02*
X027700Y020277D01*
X026371Y019323D02*
X026257Y019323D01*
X026257Y019085D02*
X026371Y019085D01*
X026371Y018846D02*
X026257Y018846D01*
X026257Y018663D02*
X025740Y018663D01*
X025740Y018160D01*
X025755Y018104D01*
X025783Y018053D01*
X025824Y018012D01*
X025875Y017983D01*
X025931Y017969D01*
X026257Y017969D01*
X026257Y018663D01*
X026257Y018608D02*
X026371Y018608D01*
X026371Y018369D02*
X026257Y018369D01*
X026257Y018131D02*
X026371Y018131D01*
X025747Y018131D02*
X002960Y018131D01*
X002960Y018369D02*
X025740Y018369D01*
X025740Y018608D02*
X002960Y018608D01*
X002960Y018846D02*
X025740Y018846D01*
X025740Y019085D02*
X002960Y019085D01*
X002960Y019323D02*
X025751Y019323D01*
X031160Y015507D02*
X042400Y015507D01*
X042400Y015269D02*
X031310Y015269D01*
X031549Y015030D02*
X042400Y015030D01*
X042400Y014792D02*
X031787Y014792D01*
X024180Y013122D02*
X024180Y013122D01*
X024180Y012884D02*
X024180Y012884D01*
X040261Y001197D02*
X005099Y001197D01*
X004860Y001436D02*
X040500Y001436D01*
X040738Y001674D02*
X004622Y001674D01*
X004383Y001913D02*
X040977Y001913D01*
X041215Y002151D02*
X004145Y002151D01*
X003906Y002390D02*
X004807Y002390D01*
X004485Y002628D02*
X003668Y002628D01*
X003429Y002867D02*
X004342Y002867D01*
X004270Y003105D02*
X003191Y003105D01*
X002960Y003344D02*
X004270Y003344D01*
X004345Y003582D02*
X002960Y003582D01*
X002960Y003821D02*
X004494Y003821D01*
X004828Y004059D02*
X002960Y004059D01*
X002960Y028625D02*
X029097Y028625D01*
X028858Y028863D02*
X002960Y028863D01*
X002960Y029102D02*
X028620Y029102D01*
X028381Y029340D02*
X002960Y029340D01*
X002960Y029579D02*
X019756Y029579D01*
X019683Y029817D02*
X002960Y029817D01*
X002960Y030056D02*
X019683Y030056D01*
X019683Y030294D02*
X002960Y030294D01*
X002960Y030533D02*
X019683Y030533D01*
X019683Y030771D02*
X002960Y030771D01*
X002960Y031010D02*
X019718Y031010D01*
X019773Y031964D02*
X002960Y031964D01*
X002960Y032202D02*
X019683Y032202D01*
X019683Y032441D02*
X002960Y032441D01*
X002960Y032679D02*
X019683Y032679D01*
X019683Y032918D02*
X002960Y032918D01*
X002960Y033156D02*
X019683Y033156D01*
X019711Y033395D02*
X002960Y033395D01*
X002960Y033633D02*
X042400Y033633D01*
X042400Y033395D02*
X025649Y033395D01*
X025677Y033156D02*
X042400Y033156D01*
X042400Y032918D02*
X025677Y032918D01*
X025677Y032679D02*
X042400Y032679D01*
X042400Y032441D02*
X025677Y032441D01*
X025677Y032202D02*
X042400Y032202D01*
X042400Y031964D02*
X025587Y031964D01*
X025324Y031725D02*
X042400Y031725D01*
X042400Y031487D02*
X025324Y031487D01*
X025324Y031248D02*
X042400Y031248D01*
X042400Y031010D02*
X025642Y031010D01*
X024524Y031248D02*
X023280Y031248D01*
X023360Y031010D02*
X024207Y031010D01*
X024172Y030771D02*
X023354Y030771D01*
X023254Y030533D02*
X024172Y030533D01*
X024172Y030294D02*
X022946Y030294D01*
X023075Y031487D02*
X024524Y031487D01*
X024524Y031725D02*
X002960Y031725D01*
X002960Y031487D02*
X022285Y031487D01*
X022080Y031248D02*
X002960Y031248D01*
X002960Y033872D02*
X042400Y033872D01*
X042400Y034110D02*
X002960Y034110D01*
X002960Y034349D02*
X042400Y034349D01*
X042400Y034587D02*
X002960Y034587D01*
X002960Y034826D02*
X042400Y034826D01*
X042400Y035064D02*
X002960Y035064D01*
X002960Y035303D02*
X042400Y035303D01*
X042400Y035541D02*
X002960Y035541D01*
X002960Y035780D02*
X042400Y035780D01*
X042400Y036018D02*
X002960Y036018D01*
X002960Y036257D02*
X042400Y036257D01*
X042400Y036495D02*
X002960Y036495D01*
X002960Y036734D02*
X042400Y036734D01*
X042400Y036972D02*
X002960Y036972D01*
X002960Y037211D02*
X042400Y037211D01*
X042400Y037449D02*
X040696Y037449D01*
X040695Y037449D02*
X040951Y037705D01*
X041090Y038039D01*
X041090Y038401D01*
X040951Y038735D01*
X040695Y038991D01*
X040361Y039130D01*
X039999Y039130D01*
X039665Y038991D01*
X039409Y038735D01*
X039270Y038401D01*
X039270Y038039D01*
X039409Y037705D01*
X039665Y037449D01*
X039999Y037310D01*
X040361Y037310D01*
X040695Y037449D01*
X040934Y037688D02*
X042400Y037688D01*
X042400Y037926D02*
X041043Y037926D01*
X041090Y038165D02*
X042339Y038165D01*
X042100Y038403D02*
X041089Y038403D01*
X040990Y038642D02*
X041862Y038642D01*
X041623Y038880D02*
X040807Y038880D01*
X040388Y039119D02*
X041384Y039119D01*
X041145Y039357D02*
X004215Y039357D01*
X003976Y039119D02*
X004972Y039119D01*
X004999Y039130D02*
X004665Y038991D01*
X004409Y038735D01*
X004270Y038401D01*
X004270Y038039D01*
X004409Y037705D01*
X004665Y037449D01*
X004999Y037310D01*
X005361Y037310D01*
X005695Y037449D01*
X005951Y037705D01*
X006090Y038039D01*
X006090Y038401D01*
X005951Y038735D01*
X005695Y038991D01*
X005361Y039130D01*
X004999Y039130D01*
X005388Y039119D02*
X039972Y039119D01*
X039553Y038880D02*
X005807Y038880D01*
X005990Y038642D02*
X039370Y038642D01*
X039271Y038403D02*
X006089Y038403D01*
X006090Y038165D02*
X039270Y038165D01*
X039317Y037926D02*
X006043Y037926D01*
X005934Y037688D02*
X039426Y037688D01*
X039664Y037449D02*
X005696Y037449D01*
X004664Y037449D02*
X002960Y037449D01*
X002960Y037688D02*
X004426Y037688D01*
X004317Y037926D02*
X002960Y037926D01*
X003021Y038165D02*
X004270Y038165D01*
X004271Y038403D02*
X003260Y038403D01*
X003498Y038642D02*
X004370Y038642D01*
X004553Y038880D02*
X003737Y038880D01*
X004454Y039596D02*
X040906Y039596D01*
X040667Y039834D02*
X004693Y039834D01*
X004932Y040073D02*
X040428Y040073D01*
X040189Y040311D02*
X005171Y040311D01*
X021160Y033395D02*
X022532Y033395D01*
X022154Y033156D02*
X021188Y033156D01*
X021188Y032918D02*
X022026Y032918D01*
X022000Y032679D02*
X021188Y032679D01*
X021188Y032441D02*
X022060Y032441D01*
X022236Y032202D02*
X021188Y032202D01*
X025604Y029579D02*
X028143Y029579D01*
D17*
X028180Y030220D02*
X025180Y030220D01*
X024924Y030318D01*
X025680Y027720D02*
X028180Y027720D01*
X028180Y026720D01*
X028046Y026220D01*
X028180Y026220D01*
X028180Y026720D01*
X031680Y023220D01*
X031680Y016720D01*
X033680Y016720D01*
X033790Y016500D01*
X035570Y016500D02*
X035680Y016720D01*
X035680Y022720D01*
X028180Y030220D01*
X025680Y027720D02*
X024680Y026720D01*
X024680Y021220D01*
X026314Y021220D01*
X027180Y022220D02*
X029180Y022220D01*
X029680Y021720D01*
X029680Y012720D01*
X029790Y012500D01*
X028180Y010720D02*
X028180Y007220D01*
X036180Y007220D01*
X036680Y007720D01*
X036680Y011220D01*
X038680Y011220D01*
X039680Y012220D01*
X039570Y012500D01*
X033680Y008720D02*
X033790Y008500D01*
X033680Y008720D02*
X033180Y009220D01*
X033180Y012720D01*
X030680Y015220D01*
X030680Y022220D01*
X029180Y023720D01*
X028180Y023720D01*
X028046Y023720D01*
X028180Y023720D02*
X028180Y024220D01*
X026180Y026220D01*
X026314Y026220D01*
X026314Y023720D02*
X026180Y023720D01*
X027180Y022220D01*
X028046Y021220D02*
X028180Y021220D01*
X028180Y018720D01*
X028046Y018720D01*
X028180Y018720D02*
X028180Y010720D01*
X024180Y010720D01*
M02*
