G75*
%MOIN*%
%OFA0B0*%
%FSLAX24Y24*%
%IPPOS*%
%LPD*%
%AMOC8*
5,1,8,0,0,1.08239X$1,22.5*
%
%ADD10C,0.0000*%
%ADD11C,0.0800*%
%ADD12C,0.0050*%
%ADD13C,0.0500*%
%ADD14C,0.2000*%
%ADD15C,0.0080*%
%ADD16C,0.0060*%
%ADD17R,0.0079X0.0079*%
D10*
X002680Y003220D02*
X005180Y000720D01*
X040180Y000720D01*
X042680Y003220D01*
X042680Y038220D01*
X040180Y040716D01*
X005180Y040716D01*
X002680Y038220D01*
X002680Y003220D01*
X004550Y003220D02*
X004552Y003270D01*
X004558Y003320D01*
X004568Y003369D01*
X004582Y003417D01*
X004599Y003464D01*
X004620Y003509D01*
X004645Y003553D01*
X004673Y003594D01*
X004705Y003633D01*
X004739Y003670D01*
X004776Y003704D01*
X004816Y003734D01*
X004858Y003761D01*
X004902Y003785D01*
X004948Y003806D01*
X004995Y003822D01*
X005043Y003835D01*
X005093Y003844D01*
X005142Y003849D01*
X005193Y003850D01*
X005243Y003847D01*
X005292Y003840D01*
X005341Y003829D01*
X005389Y003814D01*
X005435Y003796D01*
X005480Y003774D01*
X005523Y003748D01*
X005564Y003719D01*
X005603Y003687D01*
X005639Y003652D01*
X005671Y003614D01*
X005701Y003574D01*
X005728Y003531D01*
X005751Y003487D01*
X005770Y003441D01*
X005786Y003393D01*
X005798Y003344D01*
X005806Y003295D01*
X005810Y003245D01*
X005810Y003195D01*
X005806Y003145D01*
X005798Y003096D01*
X005786Y003047D01*
X005770Y002999D01*
X005751Y002953D01*
X005728Y002909D01*
X005701Y002866D01*
X005671Y002826D01*
X005639Y002788D01*
X005603Y002753D01*
X005564Y002721D01*
X005523Y002692D01*
X005480Y002666D01*
X005435Y002644D01*
X005389Y002626D01*
X005341Y002611D01*
X005292Y002600D01*
X005243Y002593D01*
X005193Y002590D01*
X005142Y002591D01*
X005093Y002596D01*
X005043Y002605D01*
X004995Y002618D01*
X004948Y002634D01*
X004902Y002655D01*
X004858Y002679D01*
X004816Y002706D01*
X004776Y002736D01*
X004739Y002770D01*
X004705Y002807D01*
X004673Y002846D01*
X004645Y002887D01*
X004620Y002931D01*
X004599Y002976D01*
X004582Y003023D01*
X004568Y003071D01*
X004558Y003120D01*
X004552Y003170D01*
X004550Y003220D01*
X022280Y030920D02*
X022282Y030960D01*
X022288Y030999D01*
X022298Y031038D01*
X022311Y031075D01*
X022329Y031111D01*
X022350Y031145D01*
X022374Y031177D01*
X022401Y031206D01*
X022431Y031233D01*
X022463Y031256D01*
X022498Y031276D01*
X022534Y031292D01*
X022572Y031305D01*
X022611Y031314D01*
X022650Y031319D01*
X022690Y031320D01*
X022730Y031317D01*
X022769Y031310D01*
X022807Y031299D01*
X022845Y031285D01*
X022880Y031266D01*
X022913Y031245D01*
X022945Y031220D01*
X022973Y031192D01*
X022999Y031162D01*
X023021Y031129D01*
X023040Y031094D01*
X023056Y031057D01*
X023068Y031019D01*
X023076Y030980D01*
X023080Y030940D01*
X023080Y030900D01*
X023076Y030860D01*
X023068Y030821D01*
X023056Y030783D01*
X023040Y030746D01*
X023021Y030711D01*
X022999Y030678D01*
X022973Y030648D01*
X022945Y030620D01*
X022913Y030595D01*
X022880Y030574D01*
X022845Y030555D01*
X022807Y030541D01*
X022769Y030530D01*
X022730Y030523D01*
X022690Y030520D01*
X022650Y030521D01*
X022611Y030526D01*
X022572Y030535D01*
X022534Y030548D01*
X022498Y030564D01*
X022463Y030584D01*
X022431Y030607D01*
X022401Y030634D01*
X022374Y030663D01*
X022350Y030695D01*
X022329Y030729D01*
X022311Y030765D01*
X022298Y030802D01*
X022288Y030841D01*
X022282Y030880D01*
X022280Y030920D01*
X022280Y032720D02*
X022282Y032760D01*
X022288Y032799D01*
X022298Y032838D01*
X022311Y032875D01*
X022329Y032911D01*
X022350Y032945D01*
X022374Y032977D01*
X022401Y033006D01*
X022431Y033033D01*
X022463Y033056D01*
X022498Y033076D01*
X022534Y033092D01*
X022572Y033105D01*
X022611Y033114D01*
X022650Y033119D01*
X022690Y033120D01*
X022730Y033117D01*
X022769Y033110D01*
X022807Y033099D01*
X022845Y033085D01*
X022880Y033066D01*
X022913Y033045D01*
X022945Y033020D01*
X022973Y032992D01*
X022999Y032962D01*
X023021Y032929D01*
X023040Y032894D01*
X023056Y032857D01*
X023068Y032819D01*
X023076Y032780D01*
X023080Y032740D01*
X023080Y032700D01*
X023076Y032660D01*
X023068Y032621D01*
X023056Y032583D01*
X023040Y032546D01*
X023021Y032511D01*
X022999Y032478D01*
X022973Y032448D01*
X022945Y032420D01*
X022913Y032395D01*
X022880Y032374D01*
X022845Y032355D01*
X022807Y032341D01*
X022769Y032330D01*
X022730Y032323D01*
X022690Y032320D01*
X022650Y032321D01*
X022611Y032326D01*
X022572Y032335D01*
X022534Y032348D01*
X022498Y032364D01*
X022463Y032384D01*
X022431Y032407D01*
X022401Y032434D01*
X022374Y032463D01*
X022350Y032495D01*
X022329Y032529D01*
X022311Y032565D01*
X022298Y032602D01*
X022288Y032641D01*
X022282Y032680D01*
X022280Y032720D01*
X004550Y038220D02*
X004552Y038270D01*
X004558Y038320D01*
X004568Y038369D01*
X004582Y038417D01*
X004599Y038464D01*
X004620Y038509D01*
X004645Y038553D01*
X004673Y038594D01*
X004705Y038633D01*
X004739Y038670D01*
X004776Y038704D01*
X004816Y038734D01*
X004858Y038761D01*
X004902Y038785D01*
X004948Y038806D01*
X004995Y038822D01*
X005043Y038835D01*
X005093Y038844D01*
X005142Y038849D01*
X005193Y038850D01*
X005243Y038847D01*
X005292Y038840D01*
X005341Y038829D01*
X005389Y038814D01*
X005435Y038796D01*
X005480Y038774D01*
X005523Y038748D01*
X005564Y038719D01*
X005603Y038687D01*
X005639Y038652D01*
X005671Y038614D01*
X005701Y038574D01*
X005728Y038531D01*
X005751Y038487D01*
X005770Y038441D01*
X005786Y038393D01*
X005798Y038344D01*
X005806Y038295D01*
X005810Y038245D01*
X005810Y038195D01*
X005806Y038145D01*
X005798Y038096D01*
X005786Y038047D01*
X005770Y037999D01*
X005751Y037953D01*
X005728Y037909D01*
X005701Y037866D01*
X005671Y037826D01*
X005639Y037788D01*
X005603Y037753D01*
X005564Y037721D01*
X005523Y037692D01*
X005480Y037666D01*
X005435Y037644D01*
X005389Y037626D01*
X005341Y037611D01*
X005292Y037600D01*
X005243Y037593D01*
X005193Y037590D01*
X005142Y037591D01*
X005093Y037596D01*
X005043Y037605D01*
X004995Y037618D01*
X004948Y037634D01*
X004902Y037655D01*
X004858Y037679D01*
X004816Y037706D01*
X004776Y037736D01*
X004739Y037770D01*
X004705Y037807D01*
X004673Y037846D01*
X004645Y037887D01*
X004620Y037931D01*
X004599Y037976D01*
X004582Y038023D01*
X004568Y038071D01*
X004558Y038120D01*
X004552Y038170D01*
X004550Y038220D01*
X039550Y038220D02*
X039552Y038270D01*
X039558Y038320D01*
X039568Y038369D01*
X039582Y038417D01*
X039599Y038464D01*
X039620Y038509D01*
X039645Y038553D01*
X039673Y038594D01*
X039705Y038633D01*
X039739Y038670D01*
X039776Y038704D01*
X039816Y038734D01*
X039858Y038761D01*
X039902Y038785D01*
X039948Y038806D01*
X039995Y038822D01*
X040043Y038835D01*
X040093Y038844D01*
X040142Y038849D01*
X040193Y038850D01*
X040243Y038847D01*
X040292Y038840D01*
X040341Y038829D01*
X040389Y038814D01*
X040435Y038796D01*
X040480Y038774D01*
X040523Y038748D01*
X040564Y038719D01*
X040603Y038687D01*
X040639Y038652D01*
X040671Y038614D01*
X040701Y038574D01*
X040728Y038531D01*
X040751Y038487D01*
X040770Y038441D01*
X040786Y038393D01*
X040798Y038344D01*
X040806Y038295D01*
X040810Y038245D01*
X040810Y038195D01*
X040806Y038145D01*
X040798Y038096D01*
X040786Y038047D01*
X040770Y037999D01*
X040751Y037953D01*
X040728Y037909D01*
X040701Y037866D01*
X040671Y037826D01*
X040639Y037788D01*
X040603Y037753D01*
X040564Y037721D01*
X040523Y037692D01*
X040480Y037666D01*
X040435Y037644D01*
X040389Y037626D01*
X040341Y037611D01*
X040292Y037600D01*
X040243Y037593D01*
X040193Y037590D01*
X040142Y037591D01*
X040093Y037596D01*
X040043Y037605D01*
X039995Y037618D01*
X039948Y037634D01*
X039902Y037655D01*
X039858Y037679D01*
X039816Y037706D01*
X039776Y037736D01*
X039739Y037770D01*
X039705Y037807D01*
X039673Y037846D01*
X039645Y037887D01*
X039620Y037931D01*
X039599Y037976D01*
X039582Y038023D01*
X039568Y038071D01*
X039558Y038120D01*
X039552Y038170D01*
X039550Y038220D01*
X039550Y003220D02*
X039552Y003270D01*
X039558Y003320D01*
X039568Y003369D01*
X039582Y003417D01*
X039599Y003464D01*
X039620Y003509D01*
X039645Y003553D01*
X039673Y003594D01*
X039705Y003633D01*
X039739Y003670D01*
X039776Y003704D01*
X039816Y003734D01*
X039858Y003761D01*
X039902Y003785D01*
X039948Y003806D01*
X039995Y003822D01*
X040043Y003835D01*
X040093Y003844D01*
X040142Y003849D01*
X040193Y003850D01*
X040243Y003847D01*
X040292Y003840D01*
X040341Y003829D01*
X040389Y003814D01*
X040435Y003796D01*
X040480Y003774D01*
X040523Y003748D01*
X040564Y003719D01*
X040603Y003687D01*
X040639Y003652D01*
X040671Y003614D01*
X040701Y003574D01*
X040728Y003531D01*
X040751Y003487D01*
X040770Y003441D01*
X040786Y003393D01*
X040798Y003344D01*
X040806Y003295D01*
X040810Y003245D01*
X040810Y003195D01*
X040806Y003145D01*
X040798Y003096D01*
X040786Y003047D01*
X040770Y002999D01*
X040751Y002953D01*
X040728Y002909D01*
X040701Y002866D01*
X040671Y002826D01*
X040639Y002788D01*
X040603Y002753D01*
X040564Y002721D01*
X040523Y002692D01*
X040480Y002666D01*
X040435Y002644D01*
X040389Y002626D01*
X040341Y002611D01*
X040292Y002600D01*
X040243Y002593D01*
X040193Y002590D01*
X040142Y002591D01*
X040093Y002596D01*
X040043Y002605D01*
X039995Y002618D01*
X039948Y002634D01*
X039902Y002655D01*
X039858Y002679D01*
X039816Y002706D01*
X039776Y002736D01*
X039739Y002770D01*
X039705Y002807D01*
X039673Y002846D01*
X039645Y002887D01*
X039620Y002931D01*
X039599Y002976D01*
X039582Y003023D01*
X039568Y003071D01*
X039558Y003120D01*
X039552Y003170D01*
X039550Y003220D01*
D11*
X037615Y019620D02*
X037615Y028828D01*
X031476Y028828D02*
X037615Y019620D01*
X031476Y019620D02*
X031476Y028828D01*
D12*
X025077Y027620D02*
X025002Y027695D01*
X024852Y027695D01*
X024777Y027620D01*
X024777Y027545D01*
X024852Y027470D01*
X025002Y027470D01*
X025077Y027395D01*
X025077Y027320D01*
X025002Y027245D01*
X024852Y027245D01*
X024777Y027320D01*
X024617Y027245D02*
X024316Y027245D01*
X024316Y027695D01*
X024617Y027695D01*
X024466Y027470D02*
X024316Y027470D01*
X024156Y027395D02*
X024156Y027320D01*
X024081Y027245D01*
X023931Y027245D01*
X023856Y027320D01*
X023931Y027470D02*
X023856Y027545D01*
X023856Y027620D01*
X023931Y027695D01*
X024081Y027695D01*
X024156Y027620D01*
X024081Y027470D02*
X024156Y027395D01*
X024081Y027470D02*
X023931Y027470D01*
X023696Y027245D02*
X023696Y027695D01*
X023396Y027695D02*
X023396Y027245D01*
X023235Y027245D02*
X022935Y027245D01*
X022935Y027695D01*
X023235Y027695D01*
X023396Y027695D02*
X023696Y027245D01*
X023085Y027470D02*
X022935Y027470D01*
X022775Y027395D02*
X022775Y027320D01*
X022700Y027245D01*
X022550Y027245D01*
X022475Y027320D01*
X022550Y027470D02*
X022475Y027545D01*
X022475Y027620D01*
X022550Y027695D01*
X022700Y027695D01*
X022775Y027620D01*
X022700Y027470D02*
X022775Y027395D01*
X022700Y027470D02*
X022550Y027470D01*
X021854Y027470D02*
X021779Y027395D01*
X021554Y027395D01*
X021554Y027245D02*
X021554Y027695D01*
X021779Y027695D01*
X021854Y027620D01*
X021854Y027470D01*
X021704Y027395D02*
X021854Y027245D01*
X021394Y027320D02*
X021394Y027695D01*
X021094Y027695D02*
X021094Y027320D01*
X021169Y027245D01*
X021319Y027245D01*
X021394Y027320D01*
X020933Y027320D02*
X020933Y027620D01*
X020858Y027695D01*
X020708Y027695D01*
X020633Y027620D01*
X020633Y027320D01*
X020708Y027245D01*
X020858Y027245D01*
X020933Y027320D01*
X020473Y027620D02*
X020473Y027695D01*
X020473Y027620D02*
X020323Y027470D01*
X020323Y027245D01*
X020323Y027470D02*
X020173Y027620D01*
X020173Y027695D01*
X033784Y011820D02*
X033784Y011745D01*
X033934Y011595D01*
X033934Y011370D01*
X033934Y011595D02*
X034084Y011745D01*
X034084Y011820D01*
X034245Y011745D02*
X034245Y011445D01*
X034320Y011370D01*
X034470Y011370D01*
X034545Y011445D01*
X034545Y011745D01*
X034470Y011820D01*
X034320Y011820D01*
X034245Y011745D01*
X034705Y011820D02*
X034705Y011445D01*
X034780Y011370D01*
X034930Y011370D01*
X035005Y011445D01*
X035005Y011820D01*
X035165Y011820D02*
X035391Y011820D01*
X035466Y011745D01*
X035466Y011595D01*
X035391Y011520D01*
X035165Y011520D01*
X035165Y011370D02*
X035165Y011820D01*
X035316Y011520D02*
X035466Y011370D01*
X035471Y011070D02*
X035471Y010620D01*
X035396Y010620D02*
X035546Y010620D01*
X035703Y010695D02*
X035778Y010620D01*
X035928Y010620D01*
X036003Y010695D01*
X036003Y010995D01*
X035928Y011070D01*
X035778Y011070D01*
X035703Y010995D01*
X035703Y010695D01*
X035546Y011070D02*
X035396Y011070D01*
X035235Y011070D02*
X034935Y011070D01*
X035085Y011070D02*
X035085Y010620D01*
X034775Y010695D02*
X034700Y010620D01*
X034550Y010620D01*
X034475Y010695D01*
X034475Y010995D01*
X034550Y011070D01*
X034700Y011070D01*
X034775Y010995D01*
X034315Y011070D02*
X034014Y011070D01*
X034014Y010620D01*
X034315Y010620D01*
X034165Y010845D02*
X034014Y010845D01*
X033854Y010845D02*
X033779Y010770D01*
X033554Y010770D01*
X033554Y010620D02*
X033554Y011070D01*
X033779Y011070D01*
X033854Y010995D01*
X033854Y010845D01*
X033704Y010770D02*
X033854Y010620D01*
X033397Y010620D02*
X033247Y010620D01*
X033322Y010620D02*
X033322Y011070D01*
X033247Y011070D02*
X033397Y011070D01*
X033087Y010995D02*
X033012Y011070D01*
X032787Y011070D01*
X032787Y010620D01*
X033012Y010620D01*
X033087Y010695D01*
X033087Y010995D01*
X036163Y011070D02*
X036163Y010620D01*
X036463Y010620D02*
X036163Y011070D01*
X036463Y011070D02*
X036463Y010620D01*
X025077Y008195D02*
X025077Y007745D01*
X024777Y008195D01*
X024777Y007745D01*
X024617Y007820D02*
X024617Y008120D01*
X024542Y008195D01*
X024391Y008195D01*
X024316Y008120D01*
X024316Y007820D01*
X024391Y007745D01*
X024542Y007745D01*
X024617Y007820D01*
X024156Y007745D02*
X023856Y007745D01*
X023856Y008195D01*
X024156Y008195D01*
X024006Y007970D02*
X023856Y007970D01*
X023696Y007970D02*
X023546Y007970D01*
X023696Y007970D02*
X023696Y007820D01*
X023621Y007745D01*
X023471Y007745D01*
X023396Y007820D01*
X023396Y008120D01*
X023471Y008195D01*
X023621Y008195D01*
X023696Y008120D01*
X023235Y008195D02*
X023235Y007745D01*
X022935Y008195D01*
X022935Y007745D01*
X022775Y007820D02*
X022775Y008195D01*
X022475Y008195D02*
X022475Y007820D01*
X022550Y007745D01*
X022700Y007745D01*
X022775Y007820D01*
X022315Y007820D02*
X022315Y008120D01*
X022240Y008195D01*
X022014Y008195D01*
X022014Y007745D01*
X022240Y007745D01*
X022315Y007820D01*
X021394Y007745D02*
X021094Y007745D01*
X021094Y008195D01*
X021394Y008195D01*
X021244Y007970D02*
X021094Y007970D01*
X020933Y007970D02*
X020633Y007970D01*
X020633Y007745D02*
X020633Y008195D01*
X020473Y008195D02*
X020173Y008195D01*
X020323Y008195D02*
X020323Y007745D01*
X020933Y007745D02*
X020933Y008195D01*
D13*
X034680Y031720D02*
X034680Y035220D01*
X035680Y034220D01*
X034680Y035220D02*
X033680Y034220D01*
D14*
X021680Y020720D02*
X021682Y020783D01*
X021688Y020845D01*
X021698Y020907D01*
X021711Y020969D01*
X021729Y021029D01*
X021750Y021088D01*
X021775Y021146D01*
X021804Y021202D01*
X021836Y021256D01*
X021871Y021308D01*
X021909Y021357D01*
X021951Y021405D01*
X021995Y021449D01*
X022043Y021491D01*
X022092Y021529D01*
X022144Y021564D01*
X022198Y021596D01*
X022254Y021625D01*
X022312Y021650D01*
X022371Y021671D01*
X022431Y021689D01*
X022493Y021702D01*
X022555Y021712D01*
X022617Y021718D01*
X022680Y021720D01*
X022743Y021718D01*
X022805Y021712D01*
X022867Y021702D01*
X022929Y021689D01*
X022989Y021671D01*
X023048Y021650D01*
X023106Y021625D01*
X023162Y021596D01*
X023216Y021564D01*
X023268Y021529D01*
X023317Y021491D01*
X023365Y021449D01*
X023409Y021405D01*
X023451Y021357D01*
X023489Y021308D01*
X023524Y021256D01*
X023556Y021202D01*
X023585Y021146D01*
X023610Y021088D01*
X023631Y021029D01*
X023649Y020969D01*
X023662Y020907D01*
X023672Y020845D01*
X023678Y020783D01*
X023680Y020720D01*
X023678Y020657D01*
X023672Y020595D01*
X023662Y020533D01*
X023649Y020471D01*
X023631Y020411D01*
X023610Y020352D01*
X023585Y020294D01*
X023556Y020238D01*
X023524Y020184D01*
X023489Y020132D01*
X023451Y020083D01*
X023409Y020035D01*
X023365Y019991D01*
X023317Y019949D01*
X023268Y019911D01*
X023216Y019876D01*
X023162Y019844D01*
X023106Y019815D01*
X023048Y019790D01*
X022989Y019769D01*
X022929Y019751D01*
X022867Y019738D01*
X022805Y019728D01*
X022743Y019722D01*
X022680Y019720D01*
X022617Y019722D01*
X022555Y019728D01*
X022493Y019738D01*
X022431Y019751D01*
X022371Y019769D01*
X022312Y019790D01*
X022254Y019815D01*
X022198Y019844D01*
X022144Y019876D01*
X022092Y019911D01*
X022043Y019949D01*
X021995Y019991D01*
X021951Y020035D01*
X021909Y020083D01*
X021871Y020132D01*
X021836Y020184D01*
X021804Y020238D01*
X021775Y020294D01*
X021750Y020352D01*
X021729Y020411D01*
X021711Y020471D01*
X021698Y020533D01*
X021688Y020595D01*
X021682Y020657D01*
X021680Y020720D01*
D15*
X029480Y012070D02*
X029480Y010370D01*
X030280Y010020D02*
X031073Y010020D01*
X031880Y010370D02*
X031880Y012070D01*
X031085Y012420D02*
X030280Y012420D01*
X029980Y011220D02*
X029982Y011272D01*
X029988Y011324D01*
X029998Y011376D01*
X030011Y011426D01*
X030028Y011476D01*
X030049Y011524D01*
X030074Y011570D01*
X030102Y011614D01*
X030133Y011656D01*
X030167Y011696D01*
X030204Y011733D01*
X030244Y011767D01*
X030286Y011798D01*
X030330Y011826D01*
X030376Y011851D01*
X030424Y011872D01*
X030474Y011889D01*
X030524Y011902D01*
X030576Y011912D01*
X030628Y011918D01*
X030680Y011920D01*
X030732Y011918D01*
X030784Y011912D01*
X030836Y011902D01*
X030886Y011889D01*
X030936Y011872D01*
X030984Y011851D01*
X031030Y011826D01*
X031074Y011798D01*
X031116Y011767D01*
X031156Y011733D01*
X031193Y011696D01*
X031227Y011656D01*
X031258Y011614D01*
X031286Y011570D01*
X031311Y011524D01*
X031332Y011476D01*
X031349Y011426D01*
X031362Y011376D01*
X031372Y011324D01*
X031378Y011272D01*
X031380Y011220D01*
X031378Y011168D01*
X031372Y011116D01*
X031362Y011064D01*
X031349Y011014D01*
X031332Y010964D01*
X031311Y010916D01*
X031286Y010870D01*
X031258Y010826D01*
X031227Y010784D01*
X031193Y010744D01*
X031156Y010707D01*
X031116Y010673D01*
X031074Y010642D01*
X031030Y010614D01*
X030984Y010589D01*
X030936Y010568D01*
X030886Y010551D01*
X030836Y010538D01*
X030784Y010528D01*
X030732Y010522D01*
X030680Y010520D01*
X030628Y010522D01*
X030576Y010528D01*
X030524Y010538D01*
X030474Y010551D01*
X030424Y010568D01*
X030376Y010589D01*
X030330Y010614D01*
X030286Y010642D01*
X030244Y010673D01*
X030204Y010707D01*
X030167Y010744D01*
X030133Y010784D01*
X030102Y010826D01*
X030074Y010870D01*
X030049Y010916D01*
X030028Y010964D01*
X030011Y011014D01*
X029998Y011064D01*
X029988Y011116D01*
X029982Y011168D01*
X029980Y011220D01*
X033480Y014370D02*
X033480Y016070D01*
X034280Y016420D02*
X035085Y016420D01*
X035880Y016070D02*
X035880Y014370D01*
X035073Y014020D02*
X034280Y014020D01*
X033980Y015220D02*
X033982Y015272D01*
X033988Y015324D01*
X033998Y015376D01*
X034011Y015426D01*
X034028Y015476D01*
X034049Y015524D01*
X034074Y015570D01*
X034102Y015614D01*
X034133Y015656D01*
X034167Y015696D01*
X034204Y015733D01*
X034244Y015767D01*
X034286Y015798D01*
X034330Y015826D01*
X034376Y015851D01*
X034424Y015872D01*
X034474Y015889D01*
X034524Y015902D01*
X034576Y015912D01*
X034628Y015918D01*
X034680Y015920D01*
X034732Y015918D01*
X034784Y015912D01*
X034836Y015902D01*
X034886Y015889D01*
X034936Y015872D01*
X034984Y015851D01*
X035030Y015826D01*
X035074Y015798D01*
X035116Y015767D01*
X035156Y015733D01*
X035193Y015696D01*
X035227Y015656D01*
X035258Y015614D01*
X035286Y015570D01*
X035311Y015524D01*
X035332Y015476D01*
X035349Y015426D01*
X035362Y015376D01*
X035372Y015324D01*
X035378Y015272D01*
X035380Y015220D01*
X035378Y015168D01*
X035372Y015116D01*
X035362Y015064D01*
X035349Y015014D01*
X035332Y014964D01*
X035311Y014916D01*
X035286Y014870D01*
X035258Y014826D01*
X035227Y014784D01*
X035193Y014744D01*
X035156Y014707D01*
X035116Y014673D01*
X035074Y014642D01*
X035030Y014614D01*
X034984Y014589D01*
X034936Y014568D01*
X034886Y014551D01*
X034836Y014538D01*
X034784Y014528D01*
X034732Y014522D01*
X034680Y014520D01*
X034628Y014522D01*
X034576Y014528D01*
X034524Y014538D01*
X034474Y014551D01*
X034424Y014568D01*
X034376Y014589D01*
X034330Y014614D01*
X034286Y014642D01*
X034244Y014673D01*
X034204Y014707D01*
X034167Y014744D01*
X034133Y014784D01*
X034102Y014826D01*
X034074Y014870D01*
X034049Y014916D01*
X034028Y014964D01*
X034011Y015014D01*
X033998Y015064D01*
X033988Y015116D01*
X033982Y015168D01*
X033980Y015220D01*
X037480Y012070D02*
X037480Y010370D01*
X038275Y010020D02*
X039080Y010020D01*
X039880Y010370D02*
X039880Y012070D01*
X039080Y012420D02*
X038287Y012420D01*
X037980Y011220D02*
X037982Y011272D01*
X037988Y011324D01*
X037998Y011376D01*
X038011Y011426D01*
X038028Y011476D01*
X038049Y011524D01*
X038074Y011570D01*
X038102Y011614D01*
X038133Y011656D01*
X038167Y011696D01*
X038204Y011733D01*
X038244Y011767D01*
X038286Y011798D01*
X038330Y011826D01*
X038376Y011851D01*
X038424Y011872D01*
X038474Y011889D01*
X038524Y011902D01*
X038576Y011912D01*
X038628Y011918D01*
X038680Y011920D01*
X038732Y011918D01*
X038784Y011912D01*
X038836Y011902D01*
X038886Y011889D01*
X038936Y011872D01*
X038984Y011851D01*
X039030Y011826D01*
X039074Y011798D01*
X039116Y011767D01*
X039156Y011733D01*
X039193Y011696D01*
X039227Y011656D01*
X039258Y011614D01*
X039286Y011570D01*
X039311Y011524D01*
X039332Y011476D01*
X039349Y011426D01*
X039362Y011376D01*
X039372Y011324D01*
X039378Y011272D01*
X039380Y011220D01*
X039378Y011168D01*
X039372Y011116D01*
X039362Y011064D01*
X039349Y011014D01*
X039332Y010964D01*
X039311Y010916D01*
X039286Y010870D01*
X039258Y010826D01*
X039227Y010784D01*
X039193Y010744D01*
X039156Y010707D01*
X039116Y010673D01*
X039074Y010642D01*
X039030Y010614D01*
X038984Y010589D01*
X038936Y010568D01*
X038886Y010551D01*
X038836Y010538D01*
X038784Y010528D01*
X038732Y010522D01*
X038680Y010520D01*
X038628Y010522D01*
X038576Y010528D01*
X038524Y010538D01*
X038474Y010551D01*
X038424Y010568D01*
X038376Y010589D01*
X038330Y010614D01*
X038286Y010642D01*
X038244Y010673D01*
X038204Y010707D01*
X038167Y010744D01*
X038133Y010784D01*
X038102Y010826D01*
X038074Y010870D01*
X038049Y010916D01*
X038028Y010964D01*
X038011Y011014D01*
X037998Y011064D01*
X037988Y011116D01*
X037982Y011168D01*
X037980Y011220D01*
X035085Y008420D02*
X034280Y008420D01*
X033480Y008070D02*
X033480Y006370D01*
X034280Y006020D02*
X035073Y006020D01*
X035880Y006370D02*
X035880Y008070D01*
X033980Y007220D02*
X033982Y007272D01*
X033988Y007324D01*
X033998Y007376D01*
X034011Y007426D01*
X034028Y007476D01*
X034049Y007524D01*
X034074Y007570D01*
X034102Y007614D01*
X034133Y007656D01*
X034167Y007696D01*
X034204Y007733D01*
X034244Y007767D01*
X034286Y007798D01*
X034330Y007826D01*
X034376Y007851D01*
X034424Y007872D01*
X034474Y007889D01*
X034524Y007902D01*
X034576Y007912D01*
X034628Y007918D01*
X034680Y007920D01*
X034732Y007918D01*
X034784Y007912D01*
X034836Y007902D01*
X034886Y007889D01*
X034936Y007872D01*
X034984Y007851D01*
X035030Y007826D01*
X035074Y007798D01*
X035116Y007767D01*
X035156Y007733D01*
X035193Y007696D01*
X035227Y007656D01*
X035258Y007614D01*
X035286Y007570D01*
X035311Y007524D01*
X035332Y007476D01*
X035349Y007426D01*
X035362Y007376D01*
X035372Y007324D01*
X035378Y007272D01*
X035380Y007220D01*
X035378Y007168D01*
X035372Y007116D01*
X035362Y007064D01*
X035349Y007014D01*
X035332Y006964D01*
X035311Y006916D01*
X035286Y006870D01*
X035258Y006826D01*
X035227Y006784D01*
X035193Y006744D01*
X035156Y006707D01*
X035116Y006673D01*
X035074Y006642D01*
X035030Y006614D01*
X034984Y006589D01*
X034936Y006568D01*
X034886Y006551D01*
X034836Y006538D01*
X034784Y006528D01*
X034732Y006522D01*
X034680Y006520D01*
X034628Y006522D01*
X034576Y006528D01*
X034524Y006538D01*
X034474Y006551D01*
X034424Y006568D01*
X034376Y006589D01*
X034330Y006614D01*
X034286Y006642D01*
X034244Y006673D01*
X034204Y006707D01*
X034167Y006744D01*
X034133Y006784D01*
X034102Y006826D01*
X034074Y006870D01*
X034049Y006916D01*
X034028Y006964D01*
X034011Y007014D01*
X033998Y007064D01*
X033988Y007116D01*
X033982Y007168D01*
X033980Y007220D01*
D16*
X024680Y009220D02*
X023680Y009220D01*
X023080Y009220D01*
X023078Y009259D01*
X023072Y009298D01*
X023063Y009336D01*
X023050Y009373D01*
X023033Y009409D01*
X023013Y009442D01*
X022989Y009474D01*
X022963Y009503D01*
X022934Y009529D01*
X022902Y009553D01*
X022869Y009573D01*
X022833Y009590D01*
X022796Y009603D01*
X022758Y009612D01*
X022719Y009618D01*
X022680Y009620D01*
X022641Y009618D01*
X022602Y009612D01*
X022564Y009603D01*
X022527Y009590D01*
X022491Y009573D01*
X022458Y009553D01*
X022426Y009529D01*
X022397Y009503D01*
X022371Y009474D01*
X022347Y009442D01*
X022327Y009409D01*
X022310Y009373D01*
X022297Y009336D01*
X022288Y009298D01*
X022282Y009259D01*
X022280Y009220D01*
X021680Y009220D01*
X021680Y013220D01*
X023680Y013220D01*
X024680Y013220D01*
X024680Y009220D01*
X023680Y009220D02*
X023680Y013220D01*
X021680Y013220D02*
X020680Y013220D01*
X020680Y009220D01*
X021680Y009220D01*
X021230Y025620D02*
X021180Y025620D01*
X021180Y025820D01*
X021230Y025820D01*
X022130Y025820D02*
X022180Y025820D01*
X022180Y025620D01*
X022130Y025620D01*
X023180Y025620D02*
X023230Y025620D01*
X023180Y025620D02*
X023180Y025820D01*
X023230Y025820D01*
X024130Y025820D02*
X024180Y025820D01*
X024180Y025620D01*
X024130Y025620D01*
D17*
X022719Y016720D03*
M02*
