%
M48
M72
T01C0.0320
T02C0.0400
T03C0.0800
T04C0.1260
%
T01
X21180Y9720
X21180Y10720
X21180Y11720
X21180Y12720
X24180Y12720
X24180Y11720
X24180Y10720
X24180Y9720
T02
X29790Y9940
X31570Y9940
X33790Y8500
X35570Y8500
X37790Y9940
X39570Y9940
X39570Y12500
X37790Y12500
X35570Y13940
X33790Y13940
X31570Y12500
X29790Y12500
X33790Y16500
X35570Y16500
X35570Y5940
X33790Y5940
X23680Y25720
X21680Y25720
T03
X22680Y30920
X22680Y32720
T04
X5180Y3220
X40180Y3220
X40180Y38220
X5180Y38220
M30
